<svg width="30" height="32" viewBox="0 0 30 32" fill="none" xmlns="http://www.w3.org/2000/svg">
    <path d="M25.7533 9.13771C25.6121 6.65713 23.6503 4.71373 21.2876 4.71373H20.1373V3.76965C20.1373 3.51926 20.0431 3.27913 19.8754 3.10208C19.7077 2.92503 19.4803 2.82556 19.2431 2.82556C19.006 2.82556 18.7786 2.92503 18.6109 3.10208C18.4432 3.27913 18.349 3.51926 18.349 3.76965V4.71373H11.1959V3.76965C11.1959 3.51926 11.1017 3.27913 10.934 3.10208C10.7663 2.92503 10.5389 2.82556 10.3018 2.82556C10.0646 2.82556 9.8372 2.92503 9.66952 3.10208C9.50183 3.27913 9.40763 3.51926 9.40763 3.76965V4.71373H8.25732C5.89412 4.71373 3.93238 6.65713 3.79156 9.13771C3.52644 13.8034 3.53136 18.5361 3.80631 23.2041C3.9458 25.5747 5.74435 27.4737 7.98953 27.621C10.2396 27.7688 12.5058 27.8424 14.772 27.8424C17.0377 27.8424 19.3044 27.7688 21.5545 27.621C23.7997 27.4737 25.5982 25.5747 25.7377 23.2041C26.0131 18.5384 26.018 13.8062 25.7533 9.13771ZM23.9534 23.087C23.912 23.7754 23.6343 24.4242 23.1724 24.9119C22.7105 25.3997 22.096 25.6929 21.444 25.7366C17.0172 26.0269 12.5277 26.0269 8.10085 25.7366C7.4489 25.6929 6.83442 25.3997 6.37249 24.9119C5.91057 24.4242 5.63288 23.7754 5.59145 23.087C5.38188 19.4846 5.33459 15.8736 5.44973 12.2664H24.0956C24.2083 15.8728 24.1649 19.4995 23.9534 23.087ZM10.3018 8.49007C10.5389 8.49007 10.7663 8.3906 10.934 8.21355C11.1017 8.0365 11.1959 7.79637 11.1959 7.54599V6.6019H18.349V7.54599C18.349 7.79637 18.4432 8.0365 18.6109 8.21355C18.7786 8.3906 19.006 8.49007 19.2431 8.49007C19.4803 8.49007 19.7077 8.3906 19.8754 8.21355C20.0431 8.0365 20.1373 7.79637 20.1373 7.54599V6.6019H21.2876C22.7061 6.6019 23.8837 7.76549 23.9682 9.25053C23.9892 9.62533 23.9982 10.0025 24.0156 10.3782H5.52931C5.54719 10.0025 5.55569 9.62533 5.5767 9.25053C5.6612 7.76549 6.83833 6.6019 8.25732 6.6019H9.40763V7.54599C9.40763 7.79637 9.50183 8.0365 9.66952 8.21355C9.8372 8.3906 10.0646 8.49007 10.3018 8.49007Z" fill="currentColor"/>
    <path d="M10.3024 17.9309C11.0431 17.9309 11.6436 17.2969 11.6436 16.5148C11.6436 15.7327 11.0431 15.0986 10.3024 15.0986C9.56163 15.0986 8.96115 15.7327 8.96115 16.5148C8.96115 17.2969 9.56163 17.9309 10.3024 17.9309Z" fill="currentColor"/>
    <path d="M14.7731 17.9309C15.5138 17.9309 16.1143 17.2969 16.1143 16.5148C16.1143 15.7327 15.5138 15.0986 14.7731 15.0986C14.0323 15.0986 13.4319 15.7327 13.4319 16.5148C13.4319 17.2969 14.0323 17.9309 14.7731 17.9309Z" fill="currentColor"/>
    <path d="M10.3024 22.6513C11.0431 22.6513 11.6436 22.0173 11.6436 21.2352C11.6436 20.4531 11.0431 19.8191 10.3024 19.8191C9.56163 19.8191 8.96115 20.4531 8.96115 21.2352C8.96115 22.0173 9.56163 22.6513 10.3024 22.6513Z" fill="currentColor"/>
    <path d="M19.2437 17.9309C19.9845 17.9309 20.5849 17.2969 20.5849 16.5148C20.5849 15.7327 19.9845 15.0986 19.2437 15.0986C18.503 15.0986 17.9025 15.7327 17.9025 16.5148C17.9025 17.2969 18.503 17.9309 19.2437 17.9309Z" fill="currentColor"/>
    <path d="M19.2437 22.6513C19.9845 22.6513 20.5849 22.0173 20.5849 21.2352C20.5849 20.4531 19.9845 19.8191 19.2437 19.8191C18.503 19.8191 17.9025 20.4531 17.9025 21.2352C17.9025 22.0173 18.503 22.6513 19.2437 22.6513Z" fill="currentColor"/>
    <path d="M14.7731 22.6513C15.5138 22.6513 16.1143 22.0173 16.1143 21.2352C16.1143 20.4531 15.5138 19.8191 14.7731 19.8191C14.0323 19.8191 13.4319 20.4531 13.4319 21.2352C13.4319 22.0173 14.0323 22.6513 14.7731 22.6513Z" fill="currentColor"/>
</svg>
