<svg width="22" height="18" viewBox="0 0 22 18" fill="none" xmlns="http://www.w3.org/2000/svg">
    <path d="M8 11.5209L14 6.02085M13.9945 11.5209H14.0035M7.99451 6.47919H8.00349M18.5 9.45835C18.5 8.19335 19.62 7.16669 21 7.16669V6.25002C21 2.58335 20 1.66669 16 1.66669H6C2 1.66669 1 2.58335 1 6.25002V6.70835C2.38 6.70835 3.5 7.73502 3.5 9.00002C3.5 10.265 2.38 11.2917 1 11.2917V11.75C1 15.4167 2 16.3334 6 16.3334H16C20 16.3334 21 15.4167 21 11.75C19.62 11.75 18.5 10.7234 18.5 9.45835Z" stroke="currentColor" stroke-width="1.5" stroke-linecap="round" stroke-linejoin="round"/>
</svg>
