<svg width="18" height="19" viewBox="0 0 18 19" fill="none" xmlns="http://www.w3.org/2000/svg">
<path d="M15.75 17H2.25C1.9425 17 1.6875 16.745 1.6875 16.4375C1.6875 16.13 1.9425 15.875 2.25 15.875H15.75C16.0575 15.875 16.3125 16.13 16.3125 16.4375C16.3125 16.745 16.0575 17 15.75 17Z" fill="white"/>
<path d="M14.265 3.11C12.81 1.655 11.385 1.6175 9.89249 3.11L8.98499 4.0175C8.90999 4.0925 8.87999 4.2125 8.90999 4.3175C9.47999 6.305 11.07 7.895 13.0575 8.465C13.0875 8.4725 13.1175 8.48 13.1475 8.48C13.23 8.48 13.305 8.45 13.365 8.39L14.265 7.4825C15.0075 6.7475 15.3675 6.035 15.3675 5.315C15.375 4.5725 15.015 3.8525 14.265 3.11Z" fill="white"/>
<path d="M11.7075 9.14751C11.49 9.04251 11.28 8.93751 11.0775 8.81751C10.9125 8.72001 10.755 8.61501 10.5975 8.50251C10.47 8.42001 10.32 8.30001 10.1775 8.18001C10.1625 8.17251 10.11 8.12751 10.05 8.06751C9.80249 7.85751 9.52499 7.58751 9.27749 7.28751C9.25499 7.27251 9.21749 7.22001 9.16499 7.15251C9.08999 7.06251 8.96249 6.91251 8.84999 6.74001C8.75999 6.62751 8.65499 6.46251 8.55749 6.29751C8.43749 6.09501 8.33249 5.89251 8.22749 5.68251C8.08983 5.3875 7.70263 5.29987 7.47244 5.53006L3.25499 9.74751C3.1575 9.84501 3.06749 10.0325 3.04499 10.16L2.63999 13.0325C2.56499 13.5425 2.7075 14.0225 3.0225 14.345C3.2925 14.6075 3.66749 14.75 4.07249 14.75C4.16249 14.75 4.25249 14.7425 4.34249 14.7275L7.22249 14.3225C7.35749 14.3 7.54499 14.21 7.63499 14.1125L11.8594 9.8881C12.085 9.66251 12.0002 9.27436 11.7075 9.14751Z" fill="white"/>
</svg>
