<svg width="14" height="14" viewBox="0 0 14 14" fill="none" xmlns="http://www.w3.org/2000/svg">
<path d="M0.707031 12.9717C0.72194 13.0036 0.740383 13.0362 0.763672 13.0684C0.819681 13.1457 0.889643 13.2029 0.964844 13.2422C0.824101 13.2919 0.700047 13.3366 0.592773 13.374C0.624052 13.2597 0.661871 13.1269 0.707031 12.9717ZM10.8799 6.16113L5.24512 11.7314L4.94043 11.4307L4.29688 10.7939C4.39112 10.7884 4.48438 10.77 4.57422 10.7393L4.5752 10.7402C4.59631 10.7331 4.61633 10.7233 4.63672 10.7148H4.66992L4.78809 10.6387H4.8252L4.97168 10.4941L8.43848 7.06641L8.43945 7.06543L8.58789 6.91797V6.87598C8.69252 6.70885 8.74701 6.51885 8.74707 6.32812C8.74707 6.13812 8.69373 5.94576 8.58789 5.77734V5.44629H8.25C8.08127 5.34218 7.88981 5.28906 7.69922 5.28906C7.51004 5.28912 7.31798 5.3416 7.14844 5.44629H7.1084L6.96191 5.59082L3.49414 9.01855L3.3457 9.16602V9.20996C3.25215 9.36038 3.19881 9.52869 3.18945 9.7002L2.42969 8.94824L2.13281 8.6543L7.76758 3.08301L10.8799 6.16113ZM10.2715 0.608398C10.3995 0.481822 10.6032 0.465633 10.75 0.560547L10.8086 0.608398L13.3926 3.16309C13.5179 3.28703 13.5336 3.47999 13.4395 3.62109L13.3926 3.67773L12.3145 4.74316L9.20215 1.66504L10.2715 0.608398Z" fill="#00ADEF" stroke="#00ADEF"/>
</svg>
