<svg width="37" height="37" viewBox="0 0 37 37" fill="none" xmlns="http://www.w3.org/2000/svg">
<g clip-path="url(#clip0_1_2154)">
<rect x="0.220459" y="0.220472" width="36.7087" height="36.7087" rx="9.17717" fill="white"/>
<circle cx="5.38086" cy="27.1567" r="27.2287" transform="rotate(-0.403168 5.38086 27.1567)" fill="url(#paint0_linear_1_2154)" stroke="url(#paint1_linear_1_2154)" stroke-width="0.0562777"/>
<circle opacity="0.4" cx="25.8447" cy="13.8388" r="27.2287" transform="rotate(-0.403168 25.8447 13.8388)" fill="url(#paint2_linear_1_2154)" stroke="url(#paint3_radial_1_2154)" stroke-width="0.0562777"/>
<path d="M7.89074 15.2502H30.1094M12.8109 7.81331L19.0001 15.2503L25.1997 7.81853M29.8576 14.6615L25.5469 8.19551C25.4384 8.03271 25.3841 7.9513 25.3124 7.89237C25.2489 7.8402 25.1758 7.80106 25.0972 7.77718C25.0084 7.75021 24.9105 7.75021 24.7149 7.75021H13.2852C13.0896 7.75021 12.9917 7.75021 12.9029 7.77718C12.8243 7.80106 12.7512 7.8402 12.6877 7.89237C12.616 7.9513 12.5617 8.03271 12.4532 8.19551L8.14252 14.6615C8.00122 14.8735 7.93057 14.9795 7.90525 15.0935C7.88288 15.1942 7.88579 15.2988 7.9137 15.3981C7.94531 15.5105 8.02173 15.6124 8.17457 15.8162L18.2001 29.1835C18.4715 29.5454 18.6072 29.7263 18.7735 29.791C18.9192 29.8477 19.0809 29.8477 19.2266 29.791C19.393 29.7263 19.5287 29.5454 19.8001 29.1835L29.8256 15.8162C29.9784 15.6124 30.0548 15.5105 30.0864 15.3981C30.1143 15.2988 30.1172 15.1942 30.0949 15.0935C30.0696 14.9795 29.9989 14.8735 29.8576 14.6615Z" stroke="#69CEF6" stroke-width="1.31102" stroke-linecap="round" stroke-linejoin="round"/>
</g>
<defs>
<linearGradient id="paint0_linear_1_2154" x1="5.38086" y1="-0.100185" x2="5.38086" y2="54.4136" gradientUnits="userSpaceOnUse">
<stop stop-color="#DAE2FF" stop-opacity="0.56"/>
<stop offset="1" stop-color="white" stop-opacity="0.2"/>
</linearGradient>
<linearGradient id="paint1_linear_1_2154" x1="33.9297" y1="24.4468" x2="-29.218" y2="38.4376" gradientUnits="userSpaceOnUse">
<stop stop-color="#B5C2FB"/>
<stop offset="1" stop-color="#B5C2FB" stop-opacity="0"/>
</linearGradient>
<linearGradient id="paint2_linear_1_2154" x1="25.8447" y1="-13.4181" x2="25.8447" y2="41.0956" gradientUnits="userSpaceOnUse">
<stop stop-color="#B4C4FF" stop-opacity="0.5"/>
<stop offset="0.9999" stop-color="#E1E8FF" stop-opacity="0.0821875"/>
<stop offset="1" stop-color="#4C5C99" stop-opacity="0.08"/>
</linearGradient>
<radialGradient id="paint3_radial_1_2154" cx="0" cy="0" r="1" gradientUnits="userSpaceOnUse" gradientTransform="translate(25.8447 13.8388) rotate(89.968) scale(56.4674)">
<stop offset="0.046875" stop-color="#B5C2FB" stop-opacity="0"/>
<stop offset="1" stop-color="#B5C2FB"/>
</radialGradient>
<clipPath id="clip0_1_2154">
<rect x="0.220459" y="0.220472" width="36.7087" height="36.7087" rx="9.17717" fill="white"/>
</clipPath>
</defs>
</svg>
