<svg width="71" height="62" viewBox="0 0 71 62" fill="none" xmlns="http://www.w3.org/2000/svg">
<path d="M70.1641 57.875L37.6641 1.625C37.1797 0.789062 36.3438 0.375 35.5 0.375C34.6563 0.375 33.8125 0.789062 33.336 1.625L0.835964 57.875C-0.124973 59.5469 1.07815 61.625 3.00003 61.625H68C69.9219 61.625 71.125 59.5469 70.1641 57.875ZM33 23.5C33 23.1562 33.2813 22.875 33.625 22.875H37.375C37.7188 22.875 38 23.1562 38 23.5V37.875C38 38.2188 37.7188 38.5 37.375 38.5H33.625C33.2813 38.5 33 38.2188 33 37.875V23.5ZM35.5 51C34.5187 50.98 33.5844 50.5761 32.8974 49.875C32.2105 49.1739 31.8258 48.2315 31.8258 47.25C31.8258 46.2685 32.2105 45.3261 32.8974 44.625C33.5844 43.9239 34.5187 43.52 35.5 43.5C36.4813 43.52 37.4157 43.9239 38.1026 44.625C38.7895 45.3261 39.1743 46.2685 39.1743 47.25C39.1743 48.2315 38.7895 49.1739 38.1026 49.875C37.4157 50.5761 36.4813 50.98 35.5 51Z" fill="#FFC53D"/>
</svg>
