<?xml version="1.0" encoding="UTF-8"?>
<svg id="Layer_1" xmlns="http://www.w3.org/2000/svg" version="1.1" viewBox="0 0 1624.1 447">
  <!-- Generator: Adobe Illustrator 29.1.0, SVG Export Plug-In . SVG Version: 2.1.0 Build 142)  -->
  <defs>
    <style>
      .st0, .st1 {
        fill: #00b3fb;
      }

      .st0, .st2 {
        fill-rule: evenodd;
      }

      .st3 {
        fill: #06abed;
      }

      .st4, .st2 {
        fill: #c80f1e;
      }

      .st5 {
        fill: #02adef;
      }
    </style>
  </defs>
  <g>
    <path class="st3" d="M481.8,201.2c-7.7,0-15-1.4-21.8-4l-1,130.3c0,3.7,2,6.1,5.6,6.1l32.8.2c3.6,0,5.7-2.4,5.7-6l1-130.9c-6.9,2.7-14.5,4.3-22.4,4.3Z"/>
    <circle class="st4" cx="481.8" cy="140.1" r="34.3"/>
    <path class="st3" d="M0,229.9c.4-58.4,41.3-103.1,101.7-102.6,59.6.4,93.7,45.7,93.4,95.2-.1,17.4-3.8,25.9-18.8,25.8l-133.8-1c5,31.7,28.4,52.9,67.7,53.2,19.5.1,35.3-4.6,51.2-15,2.4-1.6,4.9-1.2,6.5,1.3l11.2,15.5c2.4,3.3,1.6,5.7-1.7,8.9-17.6,16.9-43.2,24.8-71.2,24.6C41.4,335.3-.4,289.2,0,229.9ZM156.2,216.5c-2.2-32.5-23.5-52.1-54.8-52.3-31.2-.2-54.5,18.7-59.2,51.5l113.9.9Z"/>
    <path class="st3" d="M229.1,232.1c.4-59.2,45-103.5,104.2-103,32.4.2,58.7,13.8,75.6,35,2.4,3.3,2.4,6.1,0,8.5l-18.4,17.3c-3.3,3.2-7.3,2.4-9.7-.5-11.7-11.8-25-19.7-45.7-19.8-37.3-.3-63.5,26.3-63.7,62.8-.3,36.5,25.5,64.3,63.6,64.6,20.3.2,33.7-7.5,45.2-19.1,2.9-2.8,6.9-3.6,10.1-.3l18.1,17.6c2.4,2.5,2.4,5.3,0,8.5-17.2,21-43.6,34.1-75.7,33.9-59.6-.4-103.9-45.8-103.4-105.4Z"/>
    <path class="st3" d="M542.9,234.4c.4-59.2,45-103.5,104.2-103,32.4.2,58.7,13.8,75.6,35,2.4,3.3,2.4,6.1,0,8.5l-18.4,17.3c-3.3,3.2-7.3,2.4-9.7-.5-11.7-11.8-25-19.7-45.7-19.8-37.3-.3-63.5,26.3-63.7,62.8-.3,36.5,25.5,64.3,63.6,64.6,20.3.2,33.7-7.5,45.2-19.1,2.9-2.8,6.9-3.6,10.1-.3l18.1,17.6c2.4,2.5,2.4,5.3,0,8.5-17.2,21-43.6,34.1-75.7,33.9-59.6-.4-103.9-45.8-103.4-105.4Z"/>
    <path class="st3" d="M761.4,309.1c-2.4-2.9-2.4-6.9.5-10.9l10.7-14.5c2.9-4,6.5-3.6,9.7-.7,14.5,12.7,28.6,20.9,46.9,21,17.8.1,30.5-7.1,30.6-22.9.1-13.8-9.2-20.3-25.3-27.4l-24.3-9.9c-25.1-10.3-44-26.7-43.8-54.7.3-35.7,30.8-56.5,66.1-56.3,24.3.2,47,10.5,62.2,29.7,2.4,2.9,2,6.1-.5,8.5l-12.7,14.9c-3.3,3.6-6.1,3.2-9.7,0-12.5-11.9-24.6-17.6-37.6-17.7-15.4-.1-26,7.5-26.1,20.9-.1,13.8,10.4,19.9,25.8,26.1l23.9,9.9c25.5,10.3,45.6,27.1,45.4,57.5-.7,38.9-34.1,59-72.2,58.7-32.4-.2-55.8-15.4-69.5-32.2Z"/>
  </g>
  <g>
    <g>
      <g>
        <path class="st4" d="M1055.3,234c1.4-.2,2.9.5,3.7,1.7.9,1.5.6,3,0,4.5-.2.5-.5,1-.8,1.5-.6,1.1-1.6,2-2.7,2.6-1.2.6-2.6,1-3.9,1s-.7,0-1.1,0h0s-.3,15.5-.3,15.5c0,.5-.4.9-1,.9h0s-13.7,0-13.7,0c-.5,0-1-.4-1-1,0-2.3.2-9.4,0-11.1-.9.9-2.6,3.8-2.9,8.2,0,1.5-.5,3.5-2.1,3.9-2,.4-3.7-.8-3.8-2.8-.6-7.3,1.6-12.5,3.6-16,1.9-3.3,4.6-6.2,8.3-7.8,1.2-.5,2-.8,2.8-.7l1.7,2.9,1.8-3.1c.7-.1,1.4.1,2.6.6,1.9.8,4.3,4,6,2.2,1.4-1.4,1-2.8,2.8-3.1Z"/>
        <path class="st4" d="M1036.9,230.6c-1.3-1.3-2-3-2-4.9h0s0,0,0,0c0-1.9.8-3.7,2-4.9,1.3-1.3,3-2,4.9-2h0c1.9,0,3.7.8,4.9,2,1.3,1.3,2,3,2,4.9s-.8,3.7-2,4.9c-1.3,1.3-3,2-4.9,2s-3.7-.8-4.9-2Z"/>
        <rect class="st4" x="1056.9" y="213.7" width="2.6" height="24.3"/>
        <path class="st4" d="M1037.7,215.7c1.4-6.6,5.2-11.2,10-13.8,3.2-1.8,6.9-2.6,10.5-2.6,3.6,0,7.3.9,10.5,2.7,4.8,2.7,8.6,7.3,9.9,13.8h0c-.8-1.9-2.8-3.3-5.1-3.3s-4.4,1.5-5.2,3.5c-.7-2-2.8-3.5-5.2-3.5s-4.2,1.3-5,3.2c-.8-1.9-2.8-3.2-5-3.2s-4.4,1.5-5.2,3.5c-.7-2-2.8-3.5-5.2-3.5s-4.3,1.4-5.1,3.3h0ZM1074.2,210.8h0s0,0,0,0Z"/>
        <path class="st4" d="M1056.9,198.4c0-.7.6-1.3,1.3-1.3s1.3.6,1.3,1.3v1.8c0,.7-.6,1.3-1.3,1.3s-1.3-.6-1.3-1.3v-1.8Z"/>
      </g>
      <g>
        <path class="st1" d="M1093.2,136.2c.5-.3,1.2-.2,1.7.1.6.4.7,1.1.7,1.8,0,.2,0,.5,0,.7,0,.5-.3,1-.7,1.4-.4.4-.9.8-1.4,1s-.3,0-.4.1h0s2.2,6.2,2.2,6.2c0,.2,0,.4-.2.5h0s-5.4,2.1-5.4,2.1c-.2,0-.4,0-.5-.2-.3-.9-1.3-3.7-1.6-4.4-.2.5-.5,1.9,0,3.7.2.6.3,1.5-.3,1.9-.7.5-1.6.2-1.9-.5-1.3-2.8-1.3-5.2-1-6.9.2-1.6.9-3.1,2.1-4.3.4-.4.7-.6,1-.7l1.1.9.3-1.5c.2-.2.6-.2,1.1-.1.9,0,2.3.9,2.7,0,.3-.8,0-1.3.7-1.6Z"/>
        <path class="st1" d="M1085.5,137.6c-.7-.3-1.3-.9-1.5-1.6h0s0,0,0,0c-.3-.8-.2-1.6,0-2.3s.9-1.3,1.6-1.5h0c.8-.3,1.6-.2,2.3,0,.7.3,1.3.9,1.5,1.6.3.8.2,1.6,0,2.3-.3.7-.9,1.3-1.6,1.5-.8.3-1.6.2-2.3,0Z"/>
        <rect class="st1" x="1092.6" y="127.4" width="1.1" height="10.3" transform="translate(23.9 395.9) rotate(-20.7)"/>
        <path class="st1" d="M1083.6,131.6c-.4-2.8.4-5.2,1.9-7,1-1.2,2.3-2.1,3.8-2.6,1.4-.5,3-.7,4.6-.5,2.3.3,4.5,1.6,6,4h0c-.6-.6-1.6-.9-2.5-.5-.9.4-1.5,1.2-1.5,2.2-.6-.7-1.6-1-2.6-.6-.9.3-1.5,1.2-1.5,2-.6-.6-1.6-.9-2.5-.5-.9.4-1.5,1.2-1.5,2.2-.6-.7-1.6-1-2.6-.6-.9.3-1.5,1.2-1.5,2.1h0ZM1097.2,124.2h0s0,0,0,0Z"/>
        <path class="st1" d="M1088.6,121.9c-.1-.3,0-.6.3-.7.3-.1.6,0,.7.3l.3.7c.1.3,0,.6-.3.7s-.6,0-.7-.3l-.3-.7Z"/>
      </g>
      <g>
        <path class="st0" d="M1119.5,226.9h0s.1-.4.1-.4c0-.2.1-.4.1-.7,0-.2,0-.5-.1-.7v-.4c-.1,0-.1,0-.1,0l-.4-1,3.2,1.7-.2,5c0,.4,0,.8.3,1.2.2.4.5.6.9.8l5.1,2.3c.5.2,1,.3,1.5,0,.5-.2.9-.5,1.2-1h0s0-.1,0-.1c.2-.5.3-1.1,0-1.6-.2-.5-.6-.9-1.1-1.2h0s-3.8-1.8-3.8-1.8v-2.9c.1,0,11.7,3,11.7,3,.5.1.9,0,1.4-.1.4-.2.8-.5,1-.9s0-.1.1-.2c0,0,0-.1,0-.2h0c0-.1,0-.1,0-.1.1-.5,0-1.1-.2-1.5-.3-.4-.7-.8-1.2-.9h-.2s0,0,0,0l-10.4-2.7c-.5-.1-1.2-.3-1.7-.6,0,0-.2,0-.2-.1-.3-.2-.6-.4-.9-.5l-6-3.2,2.2-1.1,4.6,2c.7.3,1.4.2,1.9-.3.2-.2.3-.4.4-.6,0-.2.2-.5.2-.7,0-.8-.4-1.3-1.1-1.7l-5.4-2.4h0c-.2-.1-.5-.1-.7-.1-.3,0-.5,0-.8.2-.4.2-.8.4-1.3.6-1.6.7-3.2,1.4-4.7,2.3-.7.4-1.5.8-1.7,1.7-.3.9.2,2.1.5,2.9.4.9.8,1.8,1.2,2.7.3.7.6,1.4.9,2.1h0c0,.1-1.6,4.2-1.6,4.2h0c-.3.6-.1,1.3.3,1.8.2.2.4.4.6.5.2.1.5.2.8.2.7,0,1.2-.3,1.6-.9s.4-.8.5-1.1c.2-.5.4-.9.5-1.4.1-.3.2-.6.3-.9.1-.4.3-.7.4-1.1Z"/>
        <path class="st1" d="M1137.5,236.9c-9.3,2.8-18.5,5.6-28.2,8.5l-1.4-.7,2.5-4.8.4-.7.7.4,4.1,2.2,2.2-4.1.4-.7.7.4,4.1,2.2,2.2-4.1.4-.7.7.4,4.1,2.2,2.2-4.1.4-.7.7.4,4.8,2.5-.7,1.4Z"/>
        <polygon class="st1" points="1131.5 234 1131.5 234.1 1131.5 234 1131.5 234"/>
        <path class="st1" d="M1110.2,220.6c-.9.3-1.8.2-2.7-.3s-1.4-1.2-1.7-2.1c-.3-.9-.2-1.8.3-2.7.5-.9,1.2-1.4,2.1-1.7.9-.3,1.8-.2,2.7.3s1.4,1.2,1.7,2.1c.3.9.2,1.8-.3,2.7-.5.9-1.2,1.4-2.1,1.7Z"/>
      </g>
      <g>
        <path class="st0" d="M1145.7,337.9l-2.8-.9v.2c-.6,1.8-1.4,4.1-1.9,5.9-.1.4,0,.8.1,1.1.2.3.5.6.9.7s.8,0,1.1-.1c.3-.2.6-.5.7-.9l1.9-6.1Z"/>
        <path class="st1" d="M1170.8,312.8c1.1-.6,2.5-.8,3.8-.4s2.4,1.3,3,2.5c.6,1.1.8,2.5.4,3.8-.4,1.3-1.3,2.4-2.5,3-1.1.6-2.5.8-3.8.4-1.3-.4-2.4-1.3-3-2.5-.6-1.1-.8-2.5-.4-3.8.4-1.3,1.3-2.4,2.5-3Z"/>
        <path class="st1" d="M1149.9,317.8c.9-.5,2-.6,3-.3s1.9,1,2.4,1.9c.5.9.6,2,.3,3-.3,1.1-1,1.9-1.9,2.4-.9.5-2,.6-3,.3-1.1-.3-1.9-1-2.4-1.9-.5-.9-.6-2-.3-3,.3-1.1,1-1.9,1.9-2.4Z"/>
        <path class="st0" d="M1156.6,331.1c.3.4.7.7,1.2.9.6.2,1.2.1,1.7-.2l3.8-1.9-.6,1.9c-.5,1.7-1.1,3.4-1.6,5.1-1.1,3.5-2.2,7-3.2,10.4-.2.5-.1,1.1.2,1.6.3.5.7.9,1.3,1,.5.2,1.1.1,1.6-.2.5-.3.9-.7,1-1.3l2.7-8.9,2.7.8-2.7,8.9c-.2.5-.1,1.1.2,1.6.3.5.7.9,1.3,1,.5.2,1.1.1,1.6-.2.5-.3.9-.7,1-1.3,1.1-3.5,2.1-7,3.2-10.5.5-1.7,1-3.4,1.6-5.1l.6-1.9,2.1,3.7c.3.5.8.9,1.3,1.1.5.2,1,.1,1.5,0h.1c0,0,0,0,0-.1.5-.3.8-.7,1-1.2.2-.5.1-1.1-.1-1.6,0,0,0,0,0,0l-5.5-9.7c-.7-1.2-1.9-2-3.2-2.4-1.3-.4-2.8-.4-4,.2l-10,4.9s0,0,0,0c-.5.3-.8.7-1,1.2-.1.5,0,1.1.1,1.6,0,0,0,0,0,0h0Z"/>
        <path class="st0" d="M1150.4,339.4l-2.8-.9-1.9,6.1c-.1.4,0,.8.1,1.1.2.3.5.6.9.7s.8,0,1.1-.1c.3-.2.6-.5.7-.9.5-1.8,1.3-4.2,1.8-5.9v-.2Z"/>
        <path class="st0" d="M1140.7,337.9l11.1,3.4c.3-1,.4-3.4.4-4.5,0-.1,0-.3,0-.4l-.2-3.5,1.9,2.9c.2.3.5.6.9.7.3.1.7.1,1,0h0c0,0,0,0,0,0,.3-.2.6-.5.7-.9.1-.4.1-.7,0-1.1,0,0,0,0,0,0l-3.8-6.8c-.5-.8-1.3-1.4-2.2-1.7s-1.9-.3-2.8.2l-7,3.4s0,0,0,0c-.3.2-.6.5-.7.9-.1.4,0,.8,0,1.1,0,0,0,0,0,0h0c.2.4.5.6.8.7.4.1.8,0,1.1,0l3.3-1.5-2.2,2.9c0,0-.2.2-.2.3-.7.9-1.8,2.8-2.1,3.9Z"/>
      </g>
      <g>
        <path class="st0" d="M1036,165.9l-2.4-.7v.2c-.5,1.5-1.1,3.5-1.6,5s0,.7.1.9c.2.3.4.5.7.6.3,0,.7,0,1,0,.3-.2.5-.4.6-.7l1.6-5.2Z"/>
        <path class="st1" d="M1057.3,144.6c1-.5,2.1-.7,3.3-.3,1.1.3,2,1.1,2.5,2.1.5,1,.7,2.1.3,3.3s-1.1,2-2.1,2.5c-1,.5-2.1.7-3.3.3-1.1-.3-2-1.1-2.5-2.1-.5-1-.7-2.1-.3-3.3.3-1.1,1.1-2,2.1-2.5Z"/>
        <path class="st1" d="M1039.6,148.8c.8-.4,1.7-.5,2.6-.2.9.3,1.6.9,2,1.7.4.8.5,1.7.2,2.6-.3.9-.9,1.6-1.7,2-.8.4-1.7.5-2.6.2s-1.6-.9-2-1.7c-.4-.8-.5-1.7-.2-2.6.3-.9.9-1.6,1.7-2Z"/>
        <path class="st0" d="M1045.3,160.1c.2.4.6.6,1,.8.5.1,1,0,1.4-.1l3.2-1.6-.5,1.6c-.4,1.5-.9,2.9-1.4,4.4-.9,3-1.8,5.9-2.7,8.9-.1.5,0,1,.1,1.4.2.4.6.7,1.1.9s1,0,1.4-.1c.4-.2.7-.6.9-1.1l2.3-7.6,2.3.7-2.3,7.6c-.1.5,0,1,.1,1.4.2.4.6.7,1.1.9s1,0,1.4-.1c.4-.2.7-.6.9-1.1.9-3,1.8-5.9,2.7-8.9.4-1.5.9-2.9,1.3-4.4l.5-1.6,1.8,3.1c.2.4.7.8,1.1.9.4.1.9.1,1.3,0h.1c0,0,0,0,0,0,.4-.2.7-.6.9-1,.1-.4.1-.9,0-1.3,0,0,0,0,0,0l-4.7-8.2c-.6-1-1.6-1.7-2.7-2.1-1.1-.3-2.4-.3-3.4.2l-8.5,4.2s0,0,0,0c-.4.2-.7.6-.8,1-.1.4,0,.9.1,1.3,0,0,0,0,0,0h0Z"/>
        <path class="st0" d="M1040,167.1l-2.4-.7-1.6,5.2c0,.3,0,.7.1.9.2.3.4.5.7.6s.7,0,1,0c.3-.2.5-.4.6-.7.5-1.5,1.1-3.5,1.5-5v-.2Z"/>
        <path class="st0" d="M1031.8,165.8l9.4,2.9c.3-.9.4-2.9.3-3.8,0-.1,0-.2,0-.3l-.2-2.9,1.6,2.5c.2.3.4.5.8.6.3,0,.6,0,.9,0h0c0,0,0,0,0,0,.3-.2.5-.4.6-.7.1-.3,0-.6,0-.9,0,0,0,0,0,0l-3.3-5.7c-.4-.7-1.1-1.2-1.9-1.4-.8-.2-1.7-.2-2.4.1l-5.9,2.9s0,0,0,0c-.3.2-.5.4-.6.7,0,.3,0,.6,0,.9,0,0,0,0,0,0h0c.2.3.4.5.7.6.3,0,.7,0,1,0l2.8-1.2-1.9,2.4c0,0-.1.2-.2.2-.6.8-1.5,2.4-1.8,3.3Z"/>
      </g>
      <g>
        <path class="st4" d="M1067.1,51.5c-.4-.7-1-1.2-1.7-1.7-1.3-.8-2.9-1.2-4.5-.9l-22.5,4.7c-1.6.3-3,1.3-3.8,2.6-.4.7-.7,1.4-.9,2.2l-1.7,8.9,40.2-8.4-5.1-7.5Z"/>
        <path class="st4" d="M1077.9,68.1c-.7-3.3-3.9-5.4-7.2-4.7l-35.5,7.4c-3.3.7-5.4,3.9-4.7,7.2h0s0,0,0,0l2.9,13.8,4-.8,1.2,5.9c.2,1.1,1.3,1.8,2.4,1.6l4-.8c1.1-.2,1.8-1.3,1.6-2.4l-1.2-5.9,23.7-4.9,1.2,5.9c.2,1.1,1.3,1.8,2.4,1.6l4-.8c1.1-.2,1.8-1.3,1.6-2.4l-1.2-5.9,4-.8-2.9-13.8h0s0,0,0,0ZM1039.7,82.7c-1.4.3-2.7-.6-3-2-.3-1.4.6-2.7,2-3,1.4-.3,2.7.6,3,2,.3,1.4-.6,2.7-2,3ZM1065.3,76.9l-19.7,4.1-.8-4,19.7-4.1.8,4ZM1071.3,76.2c-1.4.3-2.7-.6-3-2s.6-2.7,2-3,2.7.6,3,2c.3,1.4-.6,2.7-2,3Z"/>
      </g>
      <g>
        <path class="st1" d="M1203,260.2c-.1-.5-.4-1.1-.7-1.5-.6-.9-1.6-1.5-2.8-1.7l-16-2.5c-1.2-.2-2.3.1-3.2.8-.4.3-.8.7-1.1,1.2l-3.3,5.5,28.6,4.4-1.5-6.2Z"/>
        <path class="st1" d="M1206,273.9c.4-2.3-1.2-4.5-3.6-4.9l-25.3-3.9c-2.3-.4-4.5,1.2-4.9,3.6h0s0,0,0,0l-1.5,9.8,2.8.4-.7,4.2c-.1.8.4,1.5,1.2,1.6l2.8.4c.8.1,1.5-.4,1.6-1.2l.7-4.2,16.9,2.6-.7,4.2c-.1.8.4,1.5,1.2,1.6l2.8.4c.8.1,1.5-.4,1.6-1.2l.7-4.2,2.8.4,1.5-9.8h0s0,0,0,0ZM1177.2,274.1c-1-.2-1.6-1.1-1.5-2s1.1-1.6,2-1.5,1.6,1.1,1.5,2c-.2,1-1.1,1.6-2,1.5ZM1195.5,276.6l-14.1-2.2.4-2.8,14.1,2.2-.4,2.8ZM1199.7,277.6c-1-.2-1.6-1.1-1.5-2,.2-1,1.1-1.6,2-1.5,1,.2,1.6,1.1,1.5,2s-1.1,1.6-2,1.5Z"/>
      </g>
      <g>
        <path class="st0" d="M1237.1,239.1c-3.4-5.4-7.8-7.3-11.7-7-1.5.1-2.9.6-4.1,1.4-1.2.8-2.3,1.8-3,3.1-2,3.3-2.1,8.2,1.3,13.5s2.1,2.6,3.1,3.5c1.7,1.6,3.5,3.5,4.1,8h0c-.9.8-1.6,2-1.8,3.1-.4,1.5-.2,3.1.7,4.4l1.5,2.3,3.7-2.4-2.4-3.7c-.1-.2,0-.4.1-.5l2.3-1.4-2.1-3.2c.2-.1.4-.3.6-.4l2.1,3.2,12.2-7.8-2.1-3.2c.2-.1.4-.3.6-.4l2,3.2,2.3-1.4c.2-.1.4,0,.5.1l2.4,3.7,3.7-2.4-1.5-2.3c-.9-1.4-2.2-2.3-3.7-2.6-1.1-.3-2.4-.2-3.5.3h0c-3.7-2.5-4.9-4.8-5.6-7-.4-1.2-.8-2.6-1.9-4.2h0ZM1231.1,258.9s0,0,0,0h0c0-.4.3-2.7-.4-5,1.2-.2,3.6-1,5-3.2,1.9,1.6,4.1,2.3,4.5,2.4h0s-3.3,4.8-3.3,4.8c0,0-.1.2-.3.2h0s-5.6.9-5.6.9h0ZM1221.6,247.3c-.1-.2-.2-.4-.4-.6,0-.2,0-.4,0-.5,0,0,0,0,0-.1.6-.6,1.3-1.7,1.7-2.8.3-.9.5-1.9.4-2.8-.6,0-1.6-.2-2.5-1,3.4.7,8-.2,10.9-1.4.1,0,.3,0,.4,0,.9.7,1.6,1.7,2,2.8.4,1,.7,2.2.9,3.2,1.8,9.9-8.6,11.2-13.6,3.2Z"/>
        <path class="st0" d="M1244.1,256l-12.2,7.8,1.1,1.8c.1.2,0,.4-.1.5s-.4,0-.5-.1l-1.1-1.8-1.9,1.2,2.2,3.4,17.4-11-2.2-3.4-1.9,1.2,1.1,1.8c.1.2,0,.4-.1.5s-.4,0-.5-.1l-1.1-1.8Z"/>
      </g>
      <g id="nursing_home">
        <path class="st4" d="M1166.4,119.2c0,.7.5,1.2,1.2,1.2h2.1v8.4h-9.2v-14.6c0-2.6,2.1-4.7,4.6-4.7s4.6,2.1,4.6,4.7v3.8h-2.1c-.7,0-1.2.5-1.2,1.2Z"/>
        <path class="st4" d="M1190.1,105.2c0,.2,0,.5,0,.8-.2.4-.6.7-1.1.7h-7.9c-.3,0-.6-.1-.8-.3l-15.1-14.5-15.1,14.5c-.2.2-.5.3-.8.3h-7.9c-.5,0-.9-.3-1.1-.7,0-.2-.1-.5,0-.8h-3.3v23.7h21.3v-14.6c0-3.9,3.1-7,7-7s7,3.1,7,7v14.6h21.3v-23.7h-3.3ZM1151.2,121.5c0,.7-.5,1.2-1.2,1.2h-7c-.7,0-1.2-.5-1.2-1.2v-8.6c0-.7.5-1.2,1.2-1.2h7c.7,0,1.2.5,1.2,1.2v8.6ZM1188.4,121.5c0,.7-.5,1.2-1.2,1.2h-7c-.7,0-1.2-.5-1.2-1.2v-8.6c0-.7.5-1.2,1.2-1.2h7c.7,0,1.2.5,1.2,1.2v8.6Z"/>
        <rect class="st4" x="1181.4" y="114.1" width="4.6" height="6.2"/>
        <rect class="st4" x="1144.2" y="114.1" width="4.6" height="6.2"/>
        <polygon class="st4" points="1196.4 102.8 1187.9 102.8 1174.4 89.9 1186.1 89.9 1196.4 102.8"/>
        <path class="st4" d="M1185.9,104.3h-4.4l-15.5-15c-.5-.5-1.2-.5-1.7,0l-15.6,15h-4.4l15.3-14.8,5.5-5.3,5.5,5.3h0s0,0,0,0l15.2,14.7Z"/>
        <polygon class="st4" points="1155.8 89.9 1142.4 102.8 1133.9 102.8 1144.2 89.9 1155.8 89.9"/>
      </g>
      <g id="nursing_home1" data-name="nursing_home">
        <path class="st1" d="M1053.1,315.7c.3.2.7,0,.9-.2l.6-1,3.9,2.4-2.6,4.3-6.8-4.1c-1.2-.7-1.6-2.3-.9-3.4.7-1.2,2.2-1.5,3.4-.8l1.7,1.1-.6,1c-.2.3,0,.7.2.9Z"/>
        <path class="st1" d="M1053.2,300.8c.1,0,.3.1.3.2.2.2.2.5,0,.7l-2.2,3.7c0,.1-.2.3-.4.3l-10.9,2.9,2.5,11c0,.2,0,.3,0,.5l-2.2,3.7c-.1.2-.4.3-.7.3-.1,0-.3,0-.4-.2l-.9,1.5,11,6.6,5.9-9.9-6.8-4.1c-1.8-1.1-2.4-3.4-1.3-5.2,1.1-1.8,3.4-2.4,5.2-1.3l6.8,4.1,5.9-9.9-11-6.6-.9,1.5ZM1049.9,323.3c.3.2.4.6.2.9l-2,3.3c-.2.3-.6.4-.9.2l-4-2.4c-.3-.2-.4-.6-.2-.9l2-3.3c.2-.3.6-.4.9-.2l4,2.4ZM1060.3,306.1c.3.2.4.6.2.9l-2,3.3c-.2.3-.6.4-.9.2l-4-2.4c-.3-.2-.4-.6-.2-.9l2-3.3c.2-.3.6-.4.9-.2l4,2.4Z"/>
        <rect class="st1" x="1055.7" y="305.4" width="2.5" height="3.3" transform="translate(249.1 1054.6) rotate(-59)"/>
        <rect class="st1" x="1045.3" y="322.7" width="2.5" height="3.3" transform="translate(229.3 1054.1) rotate(-59)"/>
        <polygon class="st1" points="1053.8 297.2 1051.4 301.1 1041.7 303.8 1044.9 298.4 1053.8 297.2"/>
        <path class="st1" d="M1051.6,302.4l-1.2,2.1-11.3,3c-.3,0-.5.4-.5.8l2.6,11.4-1.2,2.1-2.6-11.2-.9-4.1,4-1.1h0s0,0,0,0l11.1-3Z"/>
        <polygon class="st1" points="1036.5 312.4 1038.8 322.2 1036.4 326.2 1033.2 317.8 1036.5 312.4"/>
      </g>
      <g id="questionnaire">
        <path class="st1" d="M1244,103.6l-4.3-.7-.3,1.6c0,.2-.2.4-.4.4,0,0-.1,0-.2,0l-9.6-1.5s0,0-.1,0c0,0-.1,0-.2,0,0,0,0,0,0,0-.1-.1-.2-.3-.1-.4l.3-1.6-4.3-.7c-.4,0-.7.2-.8.5l-3.7,23.3c0,.3.2.7.6.7l19.2,3.1c.4,0,.7-.2.8-.5l3.7-23.3c0-.3-.2-.7-.6-.7ZM1228.6,108.4c0-.3.3-.5.6-.4l2,.3.3-1.9c0-.3.3-.5.6-.4l3.1.5c.3,0,.5.3.5.6l-.3,1.9,2,.3c.3,0,.5.3.5.6l-.5,3c0,.3-.3.5-.6.4l-2-.3-.3,1.9c0,.3-.3.5-.6.4l-3.1-.5c-.3,0-.5-.3-.5-.6l.3-1.9-2-.3c-.3,0-.5-.3-.5-.6l.5-3ZM1239.3,125.8l-17.1-2.7c-.3,0-.5-.3-.5-.6s.3-.5.6-.4l17.1,2.7c.3,0,.5.3.5.6s-.3.5-.6.4ZM1239.8,122.6l-17.1-2.7c-.3,0-.5-.3-.5-.6s.3-.5.6-.4l17.1,2.7c.3,0,.5.3.5.6s-.3.5-.6.4ZM1240.4,119.1l-17.1-2.7c-.3,0-.5-.3-.5-.6s.3-.5.6-.4l17.1,2.7c.3,0,.5.3.5.6s-.3.5-.6.4Z"/>
        <path class="st1" d="M1239,100.5l-.5,3c0,.1-.2.2-.3.2l-8-1.3c-.1,0-.3-.2-.2-.3l.5-3,2,.3c.3,0,.6-.1.6-.4.1-.8,1-1.4,1.9-1.2.9.2,1.6.9,1.5,1.7,0,.3.2.6.5.6l2,.3Z"/>
        <path class="st1" d="M1236.7,110.5l-.2,1.4c0,.1-.2.2-.3.2l-1.7-.3c-.3,0-.6.2-.6.4l-.3,1.6c0,.1-.2.2-.3.2l-1.5-.2c-.1,0-.3-.2-.2-.3l.3-1.6c0-.3-.2-.6-.5-.6l-1.7-.3c-.1,0-.3-.2-.2-.3l.2-1.4c0-.1.2-.2.3-.2l1.7.3c.3,0,.6-.2.6-.4l.3-1.6c0-.1.2-.2.3-.2l1.5.2c.1,0,.3.2.2.3l-.3,1.6c0,.3.2.6.5.6l1.7.3c.1,0,.3.2.2.3Z"/>
      </g>
      <g id="questionnaire1" data-name="questionnaire">
        <path class="st1" d="M1111.6,330.3l-3.8,2.2.8,1.4c.1.2,0,.4,0,.6,0,0,0,.1-.2.1l-8.4,4.8s0,0-.1,0c0,0-.1,0-.2,0,0,0,0,0,0,0-.2,0-.3-.1-.4-.3l-.8-1.4-3.7,2.2c-.3.2-.4.6-.3.9l11.8,20.5c.2.3.6.4.9.2l16.9-9.7c.3-.2.4-.6.3-.9l-11.8-20.5c-.2-.3-.6-.4-.9-.2ZM1102.7,343.7c-.1-.3,0-.6.2-.7l1.7-1-1-1.7c-.1-.3,0-.6.2-.7l2.7-1.6c.3-.2.6,0,.7.2l1,1.7,1.7-1c.3-.2.6,0,.7.2l1.5,2.6c.1.3,0,.6-.2.7l-1.7,1,1,1.7c.1.3,0,.6-.2.7l-2.7,1.6c-.3.2-.6,0-.7-.2l-1-1.7-1.7,1c-.3.2-.6,0-.7-.2l-1.5-2.6ZM1121.9,350.5l-15,8.6c-.3.2-.6,0-.7-.2-.2-.3,0-.6.2-.7l15-8.6c.3-.2.6,0,.7.2s0,.6-.2.7ZM1120.3,347.7l-15,8.6c-.3.2-.6,0-.7-.2s0-.6.2-.7l15-8.6c.3-.2.6,0,.7.2s0,.6-.2.7ZM1118.6,344.7l-15,8.6c-.3.2-.6,0-.7-.2s0-.6.2-.7l15-8.6c.3-.2.6,0,.7.2s0,.6-.2.7Z"/>
        <path class="st1" d="M1105.8,331.1l1.5,2.6c0,.1,0,.3-.1.4l-7,4c-.1,0-.3,0-.4,0l-1.5-2.6,1.8-1c.3-.2.4-.5.2-.7-.4-.7,0-1.7.7-2.2.8-.5,1.8-.3,2.2.4.2.3.5.3.7.2l1.8-1Z"/>
        <path class="st1" d="M1110.2,340.3l.7,1.2c0,.1,0,.3-.1.4l-1.5.9c-.3.2-.4.5-.2.7l.8,1.4c0,.1,0,.3-.1.4l-1.3.7c-.1,0-.3,0-.4,0l-.8-1.4c-.1-.3-.5-.3-.7-.2l-1.5.9c-.1,0-.3,0-.4,0l-.7-1.2c0-.1,0-.3.1-.4l1.5-.9c.3-.2.4-.5.2-.7l-.8-1.4c0-.1,0-.3.1-.4l1.3-.7c.1,0,.3,0,.4,0l.8,1.4c.1.3.5.3.7.2l1.5-.9c.1,0,.3,0,.4,0Z"/>
      </g>
      <g>
        <path class="st4" d="M1220.7,335c-1.9-.4-3.8,0-5.3.8-1.5.9-2.7,2.5-3.2,4.3l-.8,3.3,13.6,3.3.8-3.3c.4-1.9,0-3.8-.8-5.3-.9-1.5-2.5-2.7-4.3-3.2Z"/>
        <path class="st4" d="M1225.7,301.2c-.3,0-.6,0-.9.1-.3.2-.4.4-.5.7l-4.4,18.4c-.3,1.1,0,2.2.5,3.1.6.9,1.5,1.6,2.6,1.9,1.1.3,2.2,0,3.1-.5.9-.6,1.6-1.5,1.9-2.6l4.4-18.4c0-.3,0-.6-.1-.9-.2-.3-.4-.4-.7-.5l-5.8-1.4Z"/>
        <path class="st4" d="M1246.5,352c.4-.8.7-1.6.7-2.3,0-.6-.1-1.2-.4-1.6-.2-.3-.4-.4-.7-.6l-.8,3.5h0s0,0,0,0h0s0,0,0,0h0s0,0,0,0h0s0,0,0,0h0s0,0,0,0h0s0,0,0,0h0s0,0,0,0h0s0,0,0,0h0s0,0,0,0h0s0,0,0,0h0s0,0,0,0h0s0,0,0,0h0s0,0,0,0h0s0,0,0,0h0s0,0,0,0h0s0,0,0,0h0s0,0,0,0h0s0,0,0,0h0s0,0,0,0h0s0,0,0,0h0s0,0,0,0h0s0,0,0,0h0s0,0,0,0h0s0,0,0,0h0s0,0,0,0h0s0,0,0,0h0s0,0,0,0h0s0,0,0,0h0s0,0,0,0h0s0,0,0,0h0s0,0,0,0h0s0,0,0,0h0s0,0,0,0h0s0,0,0,0h0s0,0,0,0h0s0,0,0,0h0s0,0,0,0h0s0,0,0,0h0s0,0,0,0h0s-.1,0-.1,0h0s0,0,0,0h0s0,0,0,0h0s0,0,0,0h0s0,0,0,0h0s0,0,0,0h0s0,0,0,0h0s0,0,0,0h0s0,0,0,0h0s0,0,0,0h0s0,0,0,0h0s0,0,0,0h0s0,0,0,0h0s0,0,0,0h0s0,0,0,0h0s0,0,0,0h0s0,0,0,0h0s0,0,0,0h0s0,0,0,0h0s-48.4-11.7-48.4-11.7h0s0,0,0,0h0s0,0,0,0h0s0,0,0,0h0s0,0,0,0c-.6-.2-1.1-.6-1.4-1.1-.3-.5-.5-1.1-.4-1.7h0s0-.1,0-.1h0s0,0,0,0h0s0,0,0,0h0s0,0,0,0h0s.8-3.5.8-3.5c-.3,0-.6,0-.8.2-.4.2-.8.7-1.1,1.2-.3.6-.5,1.4-.5,2.4,0,2.2,1.3,5.1,4.4,8.2,5.2,5.1,12.8,8.8,20.9,10.7,8.1,1.9,16.6,2.1,23.5,0,4.2-1.3,6.6-3.3,7.7-5.3Z"/>
        <path class="st4" d="M1194.8,334.2l-1.1,4.5h0s0,0,0,0h0s0,0,0,0h0s0,0,0,0h0c0,.1,0,.2,0,.3,0,0,.1.2.2.2h0s0,0,0,0h0s0,0,0,0h0s0,0,0,0h0s15.7,3.8,15.7,3.8l.8-3.3c.6-2.3,2-4.2,3.9-5.4,1.9-1.2,4.3-1.6,6.6-1,2.3.6,4.2,2,5.4,3.9,1.2,1.9,1.6,4.3,1,6.6l-.8,3.3,15.7,3.8h0s0,0,0,0h0s0,0,0,0h0s0,0,0,0h0s0,0,0,0h0s0,0,0,0h0s0,0,0,0h0s0,0,0,0h0s0,0,0,0h0s0,0,0,0h0s0,0,0,0h0s0,0,0,0h0s0,0,0,0h0s0,0,0,0h0s0,0,0,0h0s0,0,0,0h0s0,0,0,0h0s0,0,0,0h0s0,0,0,0h0s0,0,0,0h0s0,0,0,0h0s0,0,0,0h0s0,0,0,0h0s0,0,0,0h0s0,0,0,0h0s0,0,0,0h0s0,0,0,0h0s0,0,0,0h0s0,0,0,0h0s0,0,0,0h0s0,0,0,0h0s0,0,0,0h0s0,0,0,0h0s0,0,0,0h0s0,0,0,0h0s0,0,0,0h0s0,0,0,0h0s0,0,0,0h0s0,0,0,0h0s0,0,0,0h0s0,0,0,0h0s0,0,0,0h0s0,0,0,0h0s0,0,0,0h0s0,0,0,0h0s0,0,0,0h0s0,0,0,0h0s0,0,0,0h0s0,0,0,0h0s0,0,0,0h0s0,0,0,0h0s0,0,0,0h0s0,0,0,0h0s0,0,0,0h0s0,0,0,0h0s0,0,0,0h0s0,0,0,0h0s0,0,0,0h0s0,0,0,0h0s0,0,0,0h0s0,0,0,0h0s0,0,0,0l1.1-4.5,2.1-8.8c1.6-6.8.3-13.6-3.1-19.2-2.4-3.9-5.9-7.2-10.1-9.4l-3.4,14c-.4,1.6-1.4,2.8-2.6,3.6-1.3.8-2.9,1.1-4.4.7-1.6-.4-2.8-1.4-3.6-2.6-.8-1.3-1.1-2.9-.7-4.4l3.4-14c-4.8,0-9.4,1.3-13.3,3.8-5.5,3.4-9.8,8.9-11.4,15.7l-2.1,8.8Z"/>
      </g>
      <g>
        <path class="st1" d="M1146.2,63.5c-.6-.4-1.3-.5-1.9-.4-.6.1-1.2.5-1.6,1.1l-.7,1,4.3,2.9.7-1c.4-.6.5-1.3.4-1.9-.1-.6-.5-1.2-1.1-1.6Z"/>
        <path class="st1" d="M1152.2,52.6c0,0-.2,0-.3,0-.1,0-.2,0-.3.2l-3.9,5.7c-.2.3-.3.8-.2,1.1,0,.4.3.7.6,1s.8.3,1.1.2c.4,0,.7-.3,1-.6l3.9-5.7c0,0,0-.2,0-.3,0-.1,0-.2-.2-.3l-1.8-1.2Z"/>
        <path class="st1" d="M1152.9,72.7c.3-.2.4-.5.5-.7,0-.2.1-.4,0-.6,0-.1,0-.2-.2-.3l-.7,1.1h0s0,0,0,0h0s0,0,0,0h0s0,0,0,0h0s0,0,0,0h0s0,0,0,0h0s0,0,0,0h0s0,0,0,0h0s0,0,0,0h0s0,0,0,0h0s0,0,0,0h0s0,0,0,0h0s0,0,0,0h0s0,0,0,0h0s0,0,0,0h0s0,0,0,0h0s0,0,0,0h0s0,0,0,0h0s0,0,0,0h0s0,0,0,0h0s0,0,0,0h0s0,0,0,0h0s0,0,0,0h0s0,0,0,0h0s0,0,0,0h0s0,0,0,0h0s0,0,0,0h0s0,0,0,0h0s0,0,0,0h0s0,0,0,0h0s0,0,0,0h0s0,0,0,0h0s0,0,0,0h0s0,0,0,0h0s0,0,0,0h0s0,0,0,0h0s0,0,0,0h0s0,0,0,0h0s0,0,0,0h0s0,0,0,0h0s0,0,0,0h0s0,0,0,0h0s0,0,0,0h0s0,0,0,0h0s0,0,0,0h0s0,0,0,0h0s0,0,0,0h0s0,0,0,0h0s0,0,0,0h0s0,0,0,0h0s0,0,0,0h0s0,0,0,0h0s0,0,0,0h0s0,0,0,0h0s0,0,0,0h0s0,0,0,0h0s0,0,0,0h0s0,0,0,0h0s0,0,0,0h0s-15.2-10.2-15.2-10.2h0s0,0,0,0h0s0,0,0,0h0s0,0,0,0h0s0,0,0,0c-.2-.2-.3-.4-.3-.6,0-.2,0-.4,0-.6h0s0,0,0,0h0s0,0,0,0h0s0,0,0,0h0s0,0,0,0h0s.7-1.1.7-1.1c0,0-.2,0-.3,0-.2,0-.4.1-.5.3-.2.2-.3.4-.5.8-.3.8-.2,1.9.5,3.4,1.1,2.4,3.3,4.7,5.8,6.4,2.5,1.7,5.4,2.8,8.1,3,1.6,0,2.7-.3,3.3-.8Z"/>
        <path class="st1" d="M1137.4,60l-.9,1.4h0s0,0,0,0h0s0,0,0,0h0s0,0,0,0h0s0,0,0,.1c0,0,0,0,0,0h0s0,0,0,0h0s0,0,0,0h0s0,0,0,0h0s4.9,3.3,4.9,3.3l.7-1c.5-.7,1.2-1.2,2-1.4.8-.2,1.7,0,2.4.5.7.5,1.2,1.2,1.4,2,.2.8,0,1.7-.5,2.4l-.7,1,4.9,3.3h0s0,0,0,0h0s0,0,0,0h0s0,0,0,0h0s0,0,0,0h0s0,0,0,0h0s0,0,0,0h0s0,0,0,0h0s0,0,0,0h0s0,0,0,0h0s0,0,0,0h0s0,0,0,0h0s0,0,0,0h0s0,0,0,0h0s0,0,0,0h0s0,0,0,0h0s0,0,0,0h0s0,0,0,0h0s0,0,0,0h0s0,0,0,0h0s0,0,0,0h0s0,0,0,0h0s0,0,0,0h0s0,0,0,0h0s0,0,0,0h0s0,0,0,0h0s0,0,0,0h0s0,0,0,0h0s0,0,0,0h0s0,0,0,0h0s0,0,0,0h0s0,0,0,0h0s0,0,0,0h0s0,0,0,0h0s0,0,0,0h0s0,0,0,0h0s0,0,0,0h0s0,0,0,0h0s0,0,0,0h0s0,0,0,0h0s0,0,0,0h0s0,0,0,0h0s0,0,0,0h0s0,0,0,0h0s0,0,0,0h0s0,0,0,0h0s0,0,0,0h0s0,0,0,0h0s0,0,0,0h0s0,0,0,0h0s0,0,0,0h0s0,0,0,0h0s0,0,0,0h0s0,0,0,0h0s0,0,0,0h0s0,0,0,0h0s0,0,0,0h0s0,0,0,0h0s0,0,0,0h0s0,0,0,0h0s0,0,0,0h0s0,0,0,0l.9-1.4,1.8-2.7c1.4-2.1,1.9-4.6,1.4-7-.3-1.7-1.1-3.2-2.3-4.5l-2.9,4.4c-.3.5-.8.8-1.4.9-.5.1-1.1,0-1.6-.3-.5-.3-.8-.8-.9-1.4-.1-.5,0-1.1.3-1.6l2.9-4.4c-1.6-.6-3.4-.7-5.1-.4-2.3.5-4.5,1.8-5.9,3.9l-1.8,2.7Z"/>
      </g>
      <g>
        <path class="st4" d="M1088,382.5c0,0-1.3-8.9-11.8-11.8.5-1.1,1-2.3,1.4-3.4,0,0,0-.1,0-.2.1-1.9,0-7.3-.1-12.4.2,0,.4.2.6.3l2.4.9c.4.1.8,0,.9-.4l3.5-9c.1-.4,0-.8-.4-.9l-2.4-.9c-2.8-1.1-5.9.3-7.1,3l-.4-.2v-3.5c0-.4-.3-.8-.7-.9l-6.2-2.4c-.5-.2-1.1,0-1.3.6s0,1.1.6,1.3l5.6,2.2v2s-.5-.2-.5-.2c-.2,0-.5,0-.7,0-.2.1-.3.3-.3.6l-.7,20.9c-.8,1.4-7.5,12.4-13.4,10.1,0,0-8.2-3.2-8.3-3.2-2.3-.9-3.8-3.9-2.3-8.1,0,0,6.6-7,6.8-7.2.2-.2.2-.4.2-.4l-28.1-11c-2.5-.3-4.8,0-7,1-7,3.1-10.2,11.4-10.4,11.8-.1.4,0,.8.4.9l5.4,2.1c-1.6,5.2,1,10.9,6.2,12.9,5.2,2,11-.4,13.3-5.3l1.3.5,3.1,6.5c0,.2.2.3.4.4l15.8,6.2c3,1.2,6.4,1,9.7-.6.3-.1.5-.2.8-.4-1.4,5.1,1.3,10.6,6.3,12.6,5.4,2.1,11.5-.6,13.6-6,1.2-3,.9-6.2-.5-8.8l3.4,1.3c.2,0,.5,0,.7-.1.2-.2.3-.4.3-.7ZM1021.9,372.1c-2.5-1-3.8-3.6-3.2-6.2l9.7,3.8c-1.3,2.3-4,3.3-6.5,2.4ZM1037.5,364l-14.8-5.8c-.4-.1-.6-.6-.4-.9s.6-.6.9-.4l14.8,5.8c.4.1.6.6.4.9s-.6.6-.9.4ZM1072.5,391.9c-2.7-1.1-4.1-4.1-3-6.8.7-1.7,2.1-2.9,3.8-3.2v5.2c.1.4.4.8.7.9s.3,0,.4,0c.6,0,1-.5,1-1v-5.2c.2,0,.6.2.9.3,2.7,1.1,4.1,4.1,3,6.8-1.1,2.7-4.1,4.1-6.8,3Z"/>
        <path class="st4" d="M1053.6,357.7l.2-2.6c.2-2.5-.8-4.5-2.7-5.5,0,0,0,0,0,0l-16.6-7.8s0,0,0,0c-2.2-.9-4.7.2-5.6,2.5l-1.3,3.2,26.1,10.2Z"/>
      </g>
      <g>
        <path class="st1" d="M1235.1,77.6s-1.2-4.5-6.8-5.6c.2-.6.4-1.2.5-1.9,0,0,0,0,0-.1,0-1-.4-3.8-.7-6.4,0,0,.2,0,.3.1l1.3.4c.2,0,.4,0,.5-.3l1.3-4.9c0-.2,0-.4-.3-.5l-1.3-.4c-1.5-.4-3.1.4-3.5,1.9h-.2c0,0-.2-1.9-.2-1.9,0-.2-.2-.4-.4-.4l-3.4-.9c-.3,0-.6,0-.7.4s0,.6.4.7l3,.8v1.1c.1,0-.2,0-.2,0-.1,0-.2,0-.3,0,0,0-.1.2-.1.3l.7,10.9c-.4.8-3.3,6.8-6.4,6,0,0-4.5-1.2-4.5-1.2-1.2-.3-2.2-1.9-1.6-4.1,0,0,3.1-4,3.2-4.1,0-.1,0-.2,0-.2l-15.2-4.2c-1.3,0-2.5.3-3.6.9-3.5,2-4.7,6.5-4.8,6.7,0,.2,0,.4.3.5l2.9.8c-.6,2.8,1.1,5.6,3.9,6.4,2.8.8,5.7-.8,6.7-3.5l.7.2,1.9,3.2c0,0,.1.1.2.2l8.5,2.4c1.6.5,3.4.2,5-.8.1,0,.2-.2.4-.2-.5,2.7,1.2,5.5,4,6.2,2.9.8,6-.9,6.8-3.8.4-1.6.1-3.3-.7-4.6l1.8.5c.1,0,.3,0,.4,0,0,0,.1-.2.1-.4ZM1200.1,75.7c-1.3-.4-2.2-1.7-2-3l5.3,1.5c-.5,1.2-1.9,1.9-3.3,1.6ZM1207.8,70.6l-8-2.2c-.2,0-.3-.3-.3-.5s.3-.3.5-.3l8,2.2c.2,0,.3.3.3.5s-.3.3-.5.3ZM1227.5,83.3c-1.5-.4-2.3-1.9-1.9-3.4.3-.9,1-1.6,1.8-1.9l.3,2.7c0,.2.2.4.4.4s.1,0,.2,0c.3,0,.5-.3.5-.6l-.3-2.7c.2,0,.4,0,.5,0,1.5.4,2.3,1.9,1.9,3.4-.4,1.5-1.9,2.3-3.4,1.9Z"/>
        <path class="st1" d="M1215.8,66.5v-1.4c0-1.3-.7-2.3-1.7-2.7,0,0,0,0,0,0l-9.1-3.2s0,0,0,0c-1.2-.3-2.5.4-2.8,1.6l-.5,1.8,14.1,3.9Z"/>
      </g>
      <g>
        <path class="st4" d="M1071,122.8c0,.4,0,.8-.1,1.1s-.2.7-.4.9c-.2.3-.3.5-.4.7-.5.7-1.1,1.2-1.8,1.6-.7.3-1.4.5-2.1.4-.7,0-1.5-.4-2.2-.9-.7-.6-1.3-1.2-1.6-1.9-.3-.7-.4-1.4-.3-2.2.1-.8.4-1.5,1-2.2.1-.2.3-.4.5-.6.2-.2.5-.5.8-.7.3-.2.7-.4,1-.5l1.2,2c-.3.2-.6.3-.8.5-.2.2-.4.4-.5.6-.2.2-.3.5-.3.8s0,.6.2.9.4.6.7.8c.3.2.6.4.9.4.3,0,.6,0,.8-.1.3-.1.5-.3.6-.5s.3-.4.4-.7c0-.2.2-.5.2-.9l2.2.6Z"/>
        <path class="st4" d="M1066,117.6c0-.3.2-.7.4-1,.2-.4.4-.8.6-1.1.2-.4.5-.8.8-1.1.5-.6,1-1,1.5-1.2.5-.2,1.1-.2,1.7-.1s1.1.4,1.6.9l3.9,3.3-1,1.1h-1.2c0,.5,0,.9,0,1.3,0,.4-.2.7-.4.9-.7.8-1.4,1.2-2.1,1.3-.7,0-1.4-.2-2.1-.7-.7-.6-1-1.2-.9-1.9.1-.7.5-1.4,1.1-2.1l.6-.8h0c-.3-.2-.5-.2-.7-.2-.2,0-.4.2-.6.4-.2.2-.4.5-.5.9s-.3.7-.4,1l-2.2-.8ZM1071.7,119.2c0,0,.2,0,.3,0,0,0,.2,0,.2-.2.1-.1.2-.3.3-.5,0-.2,0-.4,0-.6l-.6-.5-.6.7c-.1.2-.2.3-.2.5s0,.3.2.5c0,0,.2.1.3.1Z"/>
        <path class="st4" d="M1077.5,116.1l-5.9-5.7,1.1-1.1,1.2.2c0-.3.1-.6.2-.9s.2-.7.4-1c.2-.3.4-.6.6-.8l2.2,1.3c-.2.2-.4.4-.5.7-.2.3-.3.6-.4.9s-.2.6-.2.9l3.5,3.4-2.1,2.2Z"/>
        <path class="st4" d="M1075.7,103.9c-.5,0-.9-.2-1.2-.5-.3-.3-.5-.7-.4-1.2,0-.5.2-.9.5-1.2.3-.3.8-.5,1.2-.4.5,0,.9.2,1.2.5.3.3.4.7.4,1.2,0,.5-.2.9-.6,1.2-.3.3-.7.4-1.2.4ZM1082.1,111.4l-5.6-6.1,2.3-2.1,5.6,6.1-2.3,2.1Z"/>
        <path class="st4" d="M1085.4,108.3l-5-6.6,1.5-1.1.9.4c.1-.3.3-.6.4-1,.2-.4.4-.7.7-1,.3-.3.6-.6.9-.9.6-.4,1.1-.7,1.6-.7.5,0,1,0,1.5.3.5.3.9.6,1.2,1.1l3.2,4.3-2.5,1.9-3-4c-.2-.2-.3-.4-.6-.4-.2,0-.5,0-.7.2,0,0-.2.2-.3.4-.1.2-.3.3-.4.5-.1.2-.2.4-.3.5l3.3,4.4-2.5,1.9Z"/>
        <path class="st4" d="M1098.8,98.2c0,.3-.2.6-.4,1-.2.4-.4.7-.7,1-.3.3-.6.6-1,.7-.7.4-1.4.5-2.1.6-.7,0-1.4-.2-2-.6s-1.1-1-1.6-1.9c-.4-.9-.6-1.7-.6-2.4,0-.7.3-1.4.7-2,.4-.6,1-1.1,1.8-1.5.3-.2.6-.3,1-.3.3,0,.7,0,1.1,0,.4,0,.8.2,1.3.4v2c-.4-.1-.8-.2-1.1-.2-.4,0-.7,0-.9.2-.2.1-.4.3-.5.5s-.2.5-.1.8.1.7.3,1.1c.2.4.4.7.6.9s.5.3.8.4c.3,0,.5,0,.8-.2.2-.1.4-.3.6-.6s.3-.7.5-1.1l1.7,1.4ZM1100.7,99.1c.3.6.4,1.3.3,1.9,0,.7-.4,1.3-.8,1.9-.5.6-1.1,1.1-1.9,1.5-.2,0-.4.2-.7.3-.3.1-.6.2-1,.3-.4,0-.7.2-1.1.2-.4,0-.7,0-1,0v-2.4c.5,0,1,0,1.4-.2.4-.1.8-.3,1.1-.4.4-.2.7-.5.9-.8s.2-.7,0-.9l-2.9-5.9.5-2.4,1.4-.7,3.8,7.6Z"/>
      </g>
      <g>
        <path class="st4" d="M1132.9,367.2l4.8-6.7,2.5,1.8-4.8,6.7-2.5-1.8ZM1138.9,359.3c0-.5,0-.9.3-1.2.3-.4.6-.6,1.1-.7.5,0,.9,0,1.2.3.4.3.6.6.7,1.1,0,.5,0,.9-.3,1.3-.3.4-.6.6-1.1.7-.5,0-.9,0-1.3-.3-.4-.3-.6-.6-.7-1.1Z"/>
        <path class="st4" d="M1137.4,370.4l4-7.2,1.6.9v1c.4,0,.7,0,1.1,0,.4,0,.8,0,1.2.2.4.1.8.3,1.2.5.6.3,1,.7,1.3,1.2.2.5.3.9.3,1.5,0,.5-.2,1.1-.5,1.6l-2.6,4.6-2.7-1.5,2.5-4.4c.1-.2.2-.5.2-.7,0-.2-.2-.4-.5-.6-.1,0-.3-.1-.5-.2-.2,0-.4-.1-.6-.1-.2,0-.4,0-.6,0l-2.7,4.8-2.7-1.5Z"/>
        <path class="st4" d="M1155.1,373l-2.3-.9-.8,1.9c-.1.3-.2.6,0,.8,0,.3.3.4.5.5.2,0,.3.1.6.2.2,0,.4,0,.7,0v2.3c-.2,0-.4,0-.7,0s-.6,0-.9,0c-.3,0-.6-.1-.8-.2-.6-.3-1.1-.6-1.6-1.1-.5-.5-.8-1-.9-1.6-.2-.6,0-1.2.2-1.9l.9-2.2-1.2-.5.9-2.2,1.2.5.9-2.1,3,.8-1,2.5,2,.8-.7,2.4Z"/>
        <path class="st4" d="M1158.9,376.5c0,.2,0,.5.2.7.1.2.3.4.5.6s.5.3.8.4c.5.1.9.2,1.3.2.4,0,.7,0,1,0l.2,2.3c-.3,0-.6.1-1,.2-.4,0-.8,0-1.2,0-.4,0-.9-.1-1.3-.3-.9-.3-1.7-.7-2.3-1.2-.6-.5-1-1.2-1.3-1.9-.2-.7-.2-1.5,0-2.4.3-.9.7-1.6,1.2-2.1.6-.5,1.2-.8,2-1s1.5,0,2.3.1c.8.3,1.5.7,1.9,1.2.4.5.7,1.2.8,1.9,0,.7,0,1.4-.2,2.2l-.3.9-4.8-1.4ZM1161.3,375.6c0-.2,0-.3,0-.5s0-.4-.2-.5c-.1-.2-.3-.3-.5-.4-.2,0-.4,0-.6,0-.2,0-.4.2-.5.3-.1.1-.2.3-.3.5l2.1.6Z"/>
        <path class="st4" d="M1172.5,383.3c-.1.7-.4,1.3-.9,1.7-.5.5-1.1.8-1.8,1s-1.5.2-2.4,0c-.2,0-.4,0-.7-.2s-.6-.2-1-.3c-.3-.1-.7-.3-1-.5-.3-.2-.6-.4-.8-.6l1.3-2c.5.4.9.6,1.4.8s.8.3,1.1.3c.5,0,.9,0,1.2-.1s.6-.4.6-.7l1.2-6.4,1.9-1.6,1.5.3-1.5,8.4ZM1171.6,381.5c-.2.2-.5.4-.9.6-.4.2-.7.3-1.2.4-.4,0-.8,0-1.3,0-.8-.1-1.5-.4-2.1-.8-.6-.4-1-1-1.2-1.7-.2-.7-.3-1.5-.1-2.5.2-1,.5-1.7,1-2.3.5-.6,1.1-1,1.8-1.2.7-.2,1.5-.2,2.3,0,.3,0,.7.2,1,.3.3.2.6.4.9.7s.5.6.8,1l-1.2,1.6c-.3-.4-.5-.7-.8-.9-.3-.2-.6-.4-.9-.4-.2,0-.5,0-.7.1-.2.1-.4.3-.6.6-.2.3-.3.6-.4,1,0,.4,0,.8,0,1.1s.2.6.4.7c.2.2.5.3.8.4.3,0,.6,0,.9-.1.3-.1.7-.4,1.1-.6l.5,2.1Z"/>
        <path class="st4" d="M1175,383.3l.8-8.2h1.5c0,.1.6,1.2.6,1.2.2-.1.5-.3.8-.4.3-.1.7-.2,1-.3.4,0,.7,0,1,0l.4,2.5c-.3,0-.6,0-.9,0s-.6.1-.9.2c-.3.1-.6.2-.9.4l-.5,4.8-3.1-.3Z"/>
        <path class="st4" d="M1182.1,383.9l.3-8.2h3.1c0,.1-.3,8.4-.3,8.4h-3.1ZM1182.9,374.1c-.3-.3-.5-.7-.4-1.2,0-.5.2-.9.5-1.2s.7-.5,1.2-.5c.5,0,.9.2,1.2.5.3.3.5.8.5,1.2,0,.5-.2.8-.5,1.2-.3.3-.8.5-1.2.4-.5,0-.8-.2-1.2-.5Z"/>
        <path class="st4" d="M1193.4,378.5h-2.4s0,2.1,0,2.1c0,.3,0,.6.3.8.2.2.4.3.7.3.2,0,.4,0,.6,0,.2,0,.4-.1.6-.3l.9,2.1c-.1.1-.3.2-.6.4-.3.1-.5.2-.8.3-.3,0-.6.1-.9.1-.7,0-1.3,0-1.9-.3-.6-.2-1.1-.6-1.5-1.1-.4-.5-.6-1.1-.6-1.8v-2.4s-1.3,0-1.3,0v-2.4s1.2,0,1.2,0v-2.2s3.1-.5,3.1-.5v2.7s2.2,0,2.2,0l.3,2.4Z"/>
        <path class="st4" d="M1197.9,383.5l-3.6-7.3,2.8-1.1,2.1,4.8,1.2-4.8,3.1-.3-2.8,9.5c-.1.5-.4.9-.7,1.3-.4.4-.8.8-1.3,1.1-.5.3-1,.5-1.5.7l-1.2-2.3c.3-.1.5-.3.8-.4.3-.2.5-.3.8-.5.2-.2.4-.4.4-.5v-.2Z"/>
      </g>
      <path class="st5" d="M1197,167.5c16.5,14.8,28.2,1.2,54.7,46.2,26.5,45,14.5,84.3,14.5,84.3,0,0,2-22.8-9.4-49.3-2.3-5.4-8.6-7.6-12.2-12.6-1.9-2.6-9.1-14.9-14.5-13.8-4.3.9,4-9.7-3.6-15.3"/>
      <path class="st5" d="M1205.1,51.2c-18.1,0,54.2-15.1,42.1,25.8,0,0,1.7-25.8-42.1-25.8Z"/>
      <path class="st1" d="M1078.8,176.6c-11.5,3.2-10-13.7-2.8-18.9s20.2-7.9,28.3,5.6c15.9,26.6,22.1,18.1,39.6,17.2,0,0,5.3,18.3-1.3,25.4-6.1,6.5-23.5,2.6-36.5-7.7-27.3-21.6-7.7-27.1-27.3-21.6Z"/>
      <path class="st1" d="M1208.3,128.1c8.3-17.7,18.5-32.2,5.4-38.3-13.1-6.1-17.2-3.1-23.4-8.9,0,0-2.9,6.1,7.8,13.2,10.7,7.2,10.2,33.9,10.2,33.9Z"/>
      <path class="st5" d="M1189.9,51.8c-37.6-3.4-21.8,28.5-43.5,24.4-9.7-1.8-17.7-21.8-22.8-23.1-6.6-1.7-36-1.8-48.6,0,0,0,10.3,25,15,29.7,5.1,5,12.4-8.7,25.1-9.1,13.4-.4,13.7,14.5,24,11.4,2.2-.7,13.1,2.6,16.8,1.7,4.5-1.1,6.4-6.7,11.5-6.5,7.2.4,12.7,8.7,16.4,5.9,11.6-8.5,6.2-34.4,6.2-34.4Z"/>
      <path class="st5" d="M1069.2,100.2c8-5.6-39.3,3-38.2,22.5.7,11.7,1.8,20.3,13.6,19.6,3.8-.2,8.7-1.3,15-1.8,7.8-.6,10.1,9.3,12.6,7.9s11.7-21-1.4-17.9c-9.9,2.3-29.1-6.7-15.8-13.2,13.3-6.6,14.2-17,14.2-17Z"/>
      <path class="st1" d="M1118.7,175.6c29.5-13.5,46.1-20,65.1-8.7,19,11.3,18.7,28.1,18.7,28.1,0,0-22.6-26.6-54.9-20.8-32.3,5.8-28.9,1.3-28.9,1.3Z"/>
      <path class="st1" d="M1070.8,258.9c-8.8-8,24-37.8,14.8-52.6-9.1-14.8-14.8-14.4-14.8-14.4,0,0,43.6,2.6,31.3,67,0,0-25.4,5.4-31.3,0Z"/>
      <path class="st1" d="M1162.6,242.3c-8.8-2.8,38.7-.3,42-37.5,0,0,24.1,2.7,9.1,26.2-9.2,14.4,5.6,28.3,3.3,30.4-2.5,2.3-17-10.3-22.2-10.7-7.3-.6-19-4.1-32.1-8.3Z"/>
      <path class="st1" d="M1259.3,267.7c-1.3-5.4-19.3,3.2-30.2,8.7-2.9,1.5-14.4-8.2-16.9-6.6-1.7,1.1.3,13.7-1,14.7-3.8,2.8-.8,4.6.3,5.4,4.3,2.9,39.7,3,41.8,24.5,2.1,21.5,9.8-31.7,6-46.7Z"/>
      <path class="st1" d="M1137.2,354.3c-4.2,1.7-22.4,12.6-27.5,17.7-3.8,3.8-16.7-26.2-19.5-21.1-3.2,5.9,4.1,47,4.1,53.7,0,0,20-12.7,25.3-24.2,5.7-12.4,17.5-26,17.5-26Z"/>
      <path class="st1" d="M1166.5,403.6c13.7,2.9,23.3-7.4,27.2-8.9,3.9-1.5-32.2,2.4-37.9-7.7-5.6-10.1-6.6,13,10.7,16.6Z"/>
      <path class="st1" d="M1140.9,354.3c8.9-1.6,16.9,1.5,29.9,2.5,6.9.5,7.8-13.3,14.2-9.4,14.7,9,37.9,20.9,48.4,18.5,0,0-54.2,8.6-67.9,0-13.6-8.6-24.6-11.6-24.6-11.6Z"/>
      <path class="st1" d="M1173.1,301.4c2.7-1.1,2.7-10.6,7.4-11.5,8.2-1.6,32,7.9,40.5,10,0,0-23.1,2.9-22.8,11.2.1,3.2-9.2,22-13.5,21.4-1.9-.2-.3-17.4-2.4-21.4-2.4-4.7-9.2-9.8-9.2-9.8Z"/>
      <path class="st1" d="M1063.7,317.4c4.2-7.2,2.8-9,18-3.2,15.2,5.8,19.4,9.6,25.6,8.2,6.1-1.4-20.9,3.2-20.5,19.2,0,0-15.3-13.3-23.1-2.2-7.8,11.1-15.9,4.1-23.1,1.8s-13.4-3.6-23.2,1.5c-9.7,5.1,3.2-8.6,7.2-14.1s8.5,2.3,21.9,5.1c13.4,2.8,17.2-16.2,17.2-16.2Z"/>
      <path class="st1" d="M1116.2,322.6c-.3-5,17.7,6,22.8,1.7,5.1-4.3-11.2,14.6-6.4,23.1,4.8,8.5-15.6-9.7-16.4-24.8Z"/>
      <path class="st5" d="M1123.8,107.6c-7.2,5.4-26.8-3.8-21,7.7,5.8,11.4-2.9,32.1,1.5,38.1,4.3,6,12.3,8.8,13.2,3.7.9-5-6.9-26.9.9-26.9h12.2c2.2,0,.8-28.2-6.6-22.6Z"/>
      <g>
        <path class="st4" d="M1192.8,191.5l-17.9-9.2c-.1,0-.3-.1-.5,0l-20,1.6c-.4,0-.8.3-.8.7l-3.6,18.2c-2.4,12,3.5,24.3,14.4,29.9,0,0,.2,0,.2,0s.2,0,.3,0c12.2-1,22.4-10.1,24.8-22.1l3.6-18.2c0-.4-.1-.8-.5-1ZM1187.9,210.3c-2.2,11.1-11.6,19.5-22.9,20.6-10-5.3-15.4-16.7-13.2-27.8l3.5-17.5,19.1-1.6,17,8.7-3.5,17.5Z"/>
        <path class="st4" d="M1157.6,188.2l-3.1,15.5c-1.9,9.7,2.6,19.5,11.1,24.4,9.7-1.2,17.7-8.6,19.6-18.3l3.1-15.5-14.5-7.4-16.2,1.3ZM1178.6,203.9c.3.4.2,1-.3,1.3l-10.8,7.2c-.2.1-.5.2-.7.1s-.4-.2-.6-.4l-4.3-6.5c-.3-.4-.2-1,.3-1.3.4-.3,1-.2,1.3.3l3.8,5.7,10.1-6.7c.4-.3,1-.2,1.3.3Z"/>
      </g>
      <g>
        <path class="st1" d="M1122.4,78.9l-10.6.5c0,0-.2,0-.2,0l-8.7,6c-.2.1-.3.3-.2.6l3.1,9.3c2,6.1,7.9,10.2,14.4,9.9,0,0,0,0,.1,0s0,0,.1,0c5.3-3.6,7.6-10.4,5.6-16.5l-3.1-9.3c0-.2-.3-.3-.5-.3ZM1125.1,88.8c1.9,5.7-.2,12-5.1,15.4-5.9.2-11.4-3.6-13.3-9.2l-3-8.9,8.3-5.7,10.1-.4,3,8.9Z"/>
        <path class="st1" d="M1105.5,86.6l2.6,7.9c1.6,4.9,6.3,8.2,11.4,8.3,4.1-3.1,5.8-8.5,4.2-13.5l-2.6-7.9-8.5.4-7.1,4.8ZM1119.2,88.3c.2.1.3.4.2.7l-3.1,6.1c0,.1-.2.2-.3.2s-.2,0-.4,0l-3.7-1.8c-.2-.1-.3-.4-.2-.7.1-.2.4-.3.7-.2l3.2,1.6,2.8-5.7c.1-.2.4-.3.7-.2Z"/>
      </g>
      <g>
        <path class="st1" d="M1146.2,381.4l-11.5-3.3c0,0-.2,0-.3,0l-11.5,3.3c-.2,0-.4.3-.4.5v11.1c0,7.3,4.9,13.8,11.9,15.8,0,0,0,0,.1,0s.1,0,.1,0c7-2,11.9-8.5,11.9-15.8v-11.1c0-.2-.2-.5-.4-.5ZM1145.5,393c0,6.8-4.5,12.8-11,14.7-6.5-1.9-11-8-11-14.7v-10.7s11-3.1,11-3.1l11,3.1v10.7Z"/>
        <path class="st1" d="M1125.1,383.6v9.4c0,5.9,3.8,11.1,9.3,13,5.5-1.9,9.3-7.1,9.3-13v-9.4s-9.3-2.7-9.3-2.7l-9.3,2.7ZM1139.3,390.4c.2.2.2.6,0,.8l-5.5,5.5c-.1.1-.2.2-.4.2s-.3,0-.4-.2l-3.3-3.3c-.2-.2-.2-.6,0-.8.2-.2.6-.2.8,0l2.9,2.9,5.1-5.1c.2-.2.6-.2.8,0Z"/>
      </g>
    </g>
    <g>
      <g>
        <path class="st1" d="M1384.9,283.4c.8-.4,1.7-.3,2.4.2.8.6,1,1.5.9,2.5,0,.3,0,.7-.1,1-.1.8-.5,1.4-1,2-.5.6-1.2,1.1-2,1.4s-.4.1-.6.2h0s3.1,8.7,3.1,8.7c.1.3,0,.6-.3.7h0s-7.6,2.9-7.6,2.9c-.3.1-.6,0-.7-.3-.5-1.3-1.9-5.3-2.3-6.2-.3.7-.7,2.7.1,5.2.3.8.5,2.1-.4,2.6-1,.6-2.2.3-2.7-.7-1.9-3.9-1.8-7.3-1.4-9.7.3-2.2,1.3-4.4,3-6.1.6-.5,1-.9,1.4-1l1.6,1.3.4-2.1c.4-.2.8-.2,1.6-.2,1.2,0,3.3,1.3,3.8,0,.5-1.1,0-1.8.9-2.3Z"/>
        <path class="st1" d="M1373.9,285.4c-1-.4-1.8-1.2-2.2-2.3h0s0,0,0,0c-.4-1.1-.3-2.2,0-3.2s1.2-1.8,2.3-2.2h0c1.1-.4,2.2-.3,3.2.1,1,.4,1.8,1.2,2.2,2.3.4,1.1.3,2.2,0,3.2-.4,1-1.2,1.8-2.3,2.2s-2.2.3-3.2,0Z"/>
        <rect class="st1" x="1384" y="271.1" width="1.6" height="14.5" transform="translate(-8.8 508.6) rotate(-20.7)"/>
        <path class="st1" d="M1371.2,276.9c-.6-4,.5-7.3,2.7-9.8,1.4-1.7,3.3-2.9,5.3-3.7,2-.8,4.3-1,6.4-.7,3.2.5,6.3,2.2,8.5,5.6h0c-.8-.9-2.2-1.3-3.5-.8s-2.2,1.7-2.1,3c-.8-1-2.3-1.4-3.6-.9-1.3.5-2.1,1.6-2.1,2.9-.8-.9-2.2-1.2-3.5-.7-1.3.5-2.2,1.7-2.1,3-.8-1-2.3-1.4-3.6-.9-1.3.5-2.1,1.7-2.1,2.9h0ZM1390.5,266.6h0s0,0,0,0Z"/>
        <path class="st1" d="M1378.3,263.3c-.2-.4,0-.9.5-1s.9,0,1,.5l.4,1c.2.4,0,.9-.5,1-.4.2-.9,0-1-.5l-.4-1Z"/>
      </g>
      <g>
        <path class="st2" d="M1328.9,223.1h0s.8.1.8.1c.5,0,1,0,1.5,0,.5-.1.9-.3,1.3-.6l.7-.5h0s2-1.3,2-1.3l-2.2,7.6-10.5,1.8c-.9.1-1.7.6-2.3,1.2-.6.6-1.1,1.4-1.3,2.3l-2.6,11.8c-.2,1.1,0,2.3.5,3.3.6,1,1.5,1.7,2.6,2h0s.2,0,.2,0c1.2.2,2.4,0,3.4-.6,1-.6,1.7-1.6,2-2.8h0s2-8.8,2-8.8l6.2-1-1.1,25.5c0,1,.2,2,.8,2.8.6.8,1.4,1.4,2.4,1.7.2,0,.3,0,.5.1.1,0,.2,0,.3,0h.3s0,0,0,0c1.1,0,2.3-.4,3.1-1.2.8-.7,1.3-1.8,1.4-2.9v-.3s0,0,0,0l1-23.1c0-1.2,0-2.6.4-3.7,0-.2.1-.4.2-.6.3-.7.5-1.4.7-2.1l4-13.9,3.2,4.1-2.2,10.6c-.3,1.6.2,3,1.5,3.9.4.3.9.5,1.5.6.5.1,1.1.1,1.6,0,1.6-.3,2.7-1.4,3-3l2.5-12.3h0c.1-.5,0-1.1,0-1.6-.1-.5-.4-1.1-.7-1.5-.6-.8-1.2-1.6-1.8-2.4-2.2-3-4.5-6-6.9-8.9-1.1-1.3-2.4-2.8-4.3-2.9-2-.1-4.3,1.3-5.8,2.4-1.8,1.2-3.5,2.5-5.2,3.7-1.3,1-2.6,1.9-3.9,2.8l-.3.2-9.1-1.5h0c-1.4-.4-2.7.3-3.6,1.4-.3.5-.6,1-.7,1.5-.1.6-.1,1.1,0,1.7.3,1.5,1.3,2.5,2.7,2.9s1.7.4,2.6.6c1,.2,2.1.4,3.1.5.7.1,1.4.2,2.1.3.8.1,1.6.2,2.4.4Z"/>
        <path class="st4" d="M1316.2,265.3c-10.1-18.2-20.1-36.2-30.6-55.2l.9-3.2,11.1,3.2,1.6.5-.5,1.6-2.7,9.5,9.5,2.7,1.6.5-.5,1.6-2.7,9.5,9.5,2.7,1.6.5-.5,1.6-2.7,9.5,9.5,2.7,1.6.5-.5,1.6-3.2,11.1-3.2-.9Z"/>
        <polygon class="st4" points="1319.4 251.4 1319.4 251.4 1319.4 251.4 1319.4 251.4"/>
        <path class="st4" d="M1338,200.7c-.9-1.7-1.2-3.7-.7-5.7.6-2,1.9-3.6,3.6-4.5,1.7-.9,3.7-1.2,5.7-.7,2,.6,3.6,1.9,4.5,3.6.9,1.7,1.2,3.7.7,5.7-.6,2-1.9,3.6-3.6,4.5-1.7.9-3.7,1.2-5.7.7-2-.6-3.6-1.9-4.5-3.6Z"/>
      </g>
      <g>
        <path class="st2" d="M1492.9,285.5l-4.8-1.5v.3c-1,3-2.3,6.9-3.2,9.9-.2.6-.1,1.3.2,1.9.3.6.8,1,1.5,1.2.6.2,1.3.1,1.9-.2.6-.3,1-.8,1.2-1.4l3.1-10.3Z"/>
        <path class="st4" d="M1534.9,243.5c1.9-1,4.2-1.3,6.4-.6,2.2.7,4,2.2,5,4.1,1,1.9,1.3,4.2.6,6.4-.7,2.2-2.2,4-4.1,5-1.9,1-4.2,1.3-6.4.6s-4-2.2-5-4.1c-1-1.9-1.3-4.2-.6-6.4.7-2.2,2.2-4,4.1-5Z"/>
        <path class="st4" d="M1500,251.9c1.5-.8,3.3-1,5.1-.5s3.1,1.7,3.9,3.3c.8,1.5,1,3.3.5,5.1-.5,1.8-1.7,3.1-3.3,3.9-1.5.8-3.3,1-5.1.5-1.8-.5-3.1-1.7-3.9-3.3-.8-1.5-1-3.3-.5-5.1.5-1.8,1.7-3.1,3.3-3.9Z"/>
        <path class="st2" d="M1511.2,274.2c.5.7,1.2,1.3,2,1.5.9.3,2,.2,2.8-.3l6.4-3.2-1,3.2c-.9,2.9-1.8,5.7-2.7,8.6-1.8,5.8-3.6,11.7-5.4,17.5-.3.9-.2,1.9.3,2.7.4.8,1.2,1.5,2.1,1.8.9.3,1.9.2,2.7-.3.8-.4,1.5-1.2,1.8-2.1l4.6-14.9,4.6,1.4-4.6,14.9c-.3.9-.2,1.9.3,2.7.4.8,1.2,1.5,2.1,1.8.9.3,1.9.2,2.7-.3.8-.4,1.5-1.2,1.8-2.1,1.8-5.8,3.6-11.7,5.3-17.5.9-2.9,1.7-5.7,2.6-8.6l1-3.2,3.5,6.2c.5.8,1.3,1.5,2.2,1.8.8.3,1.7.2,2.5-.1h.2c0-.1,0-.2.1-.2.8-.5,1.4-1.2,1.7-2.1.3-.9.2-1.8-.2-2.6,0,0,0,0,0-.1l-9.2-16.2c-1.1-2-3.2-3.4-5.4-4.1s-4.7-.7-6.7.4l-16.7,8.3s0,0-.1,0c-.8.4-1.4,1.2-1.6,2.1-.2.9-.2,1.8.2,2.7,0,0,0,0,0,.1v.2Z"/>
        <path class="st2" d="M1500.8,288l-4.8-1.5-3.1,10.3c-.2.6-.1,1.3.2,1.9.3.6.8,1,1.5,1.2.6.2,1.3.1,1.9-.2.6-.3,1-.8,1.2-1.4.9-3,2.1-7,3-9.9v-.3Z"/>
        <path class="st2" d="M1484.6,285.5l18.5,5.7c.5-1.7.7-5.7.6-7.5,0-.2,0-.4,0-.7l-.3-5.8,3.1,4.9c.3.5.9,1,1.5,1.2.6.2,1.2.2,1.7,0h.2c0,0,0-.1,0-.1.6-.3,1-.8,1.2-1.4.2-.6.2-1.3-.1-1.8,0,0,0,0,0,0l-6.4-11.3c-.8-1.4-2.2-2.4-3.8-2.8-1.5-.5-3.3-.5-4.7.3l-11.7,5.8s0,0,0,0c-.6.3-.9.8-1.1,1.4-.2.6-.1,1.3.2,1.9,0,0,0,0,0,0v.2c.4.5.9.9,1.5,1,.6.2,1.3.1,1.9-.1l5.6-2.5-3.7,4.8c-.1.2-.3.3-.4.5-1.2,1.5-3,4.7-3.6,6.6Z"/>
      </g>
      <g>
        <path class="st1" d="M1382.4,125.5c.3-.3.5-.7.6-1.2.2-.8.1-1.7-.3-2.5l-6.3-10.9c-.5-.8-1.2-1.3-2-1.6-.4-.1-.9-.1-1.3,0l-4.9.6,11.3,19.6,3-3.9Z"/>
        <path class="st1" d="M1375.5,134c1.6-.9,2.1-3,1.2-4.5l-10-17.3c-.9-1.6-2.9-2.1-4.5-1.2h0s0,0,0,0l-6.7,3.9,1.1,1.9-2.9,1.7c-.5.3-.7,1-.4,1.5l1.1,1.9c.3.5,1,.7,1.5.4l2.9-1.7,6.6,11.5-2.9,1.7c-.5.3-.7,1-.4,1.5l1.1,1.9c.3.5,1,.7,1.5.4l2.9-1.7,1.1,1.9,6.7-3.9h0s0,0,0,0ZM1361.3,116.5c-.4-.7-.2-1.5.5-1.9.7-.4,1.5-.2,1.9.5.4.7.2,1.5-.5,1.9-.7.4-1.5.2-1.9-.5ZM1368.8,128.9l-5.5-9.6,1.9-1.1,5.5,9.6-1.9,1.1ZM1370.2,131.9c-.4-.7-.2-1.5.5-1.9.7-.4,1.5-.2,1.9.5s.2,1.5-.5,1.9-1.5.2-1.9-.5Z"/>
      </g>
      <g>
        <path class="st1" d="M1458.3,277.8c-.3-.3-.7-.6-1.1-.7-.8-.3-1.7-.3-2.5,0l-11.6,4.9c-.8.4-1.5,1-1.8,1.8-.2.4-.3.8-.2,1.3v5s20.8-8.7,20.8-8.7l-3.5-3.5Z"/>
        <path class="st1" d="M1465.8,285.7c-.7-1.7-2.7-2.5-4.4-1.8l-18.4,7.7c-1.7.7-2.5,2.7-1.8,4.4h0s0,0,0,0l3,7.2,2-.9,1.3,3.1c.2.6.9.8,1.5.6l2-.9c.6-.2.8-.9.6-1.5l-1.3-3.1,12.3-5.1,1.3,3.1c.2.6.9.8,1.5.6l2-.9c.6-.2.8-.9.6-1.5l-1.3-3.1,2-.9-3-7.2h0s0,0,0,0ZM1446.8,297.6c-.7.3-1.5,0-1.8-.7-.3-.7,0-1.5.7-1.8s1.5,0,1.8.7,0,1.5-.7,1.8ZM1460,291.7l-10.2,4.3-.9-2,10.2-4.3.9,2ZM1463.1,290.7c-.7.3-1.5,0-1.8-.7-.3-.7,0-1.5.7-1.8s1.5,0,1.8.7c.3.7,0,1.5-.7,1.8Z"/>
      </g>
      <g>
        <path class="st2" d="M1599.4,103.4c7.1-10.2,7.4-19.7,3.8-26.4-1.4-2.6-3.3-4.8-5.6-6.4-2.3-1.6-5-2.7-7.9-3.1-7.5-1.1-16.5,2.4-23.6,12.6-2.2,3.2-3.2,5.8-4.1,8.2-1.6,4.3-3.8,8.9-11.4,13.4h0c-2.2-1-4.7-1.3-7.1-1-3,.5-5.7,2-7.5,4.6l-3.1,4.4,7.1,5,5-7.1c.2-.3.7-.4,1-.2l4.3,3,4.3-6.2c.4.3.8.6,1.2.8l-4.3,6.2,23.3,16.3,4.3-6.2c.4.3.8.6,1.2.9l-4.3,6.1,4.3,3c.3.2.4.7.2,1l-5,7.1,7.1,5,3.1-4.4c1.8-2.6,2.5-5.7,2-8.6-.4-2.3-1.4-4.4-3.2-6.1h0c1.7-8.6,5-12.5,8.4-15.4,1.9-1.6,4-3.4,6.3-6.6h0ZM1558.8,107.3s0,0,.1.1h0c.8-.2,5-1.5,8.8-4.6,1.4,2,4.5,5.7,9.7,6.6-1.6,4.6-1.1,9.2-1,10h0s-11.2-2.3-11.2-2.3c-.2,0-.4-.2-.5-.3h0s-5.8-9.5-5.8-9.5h0ZM1572.7,81.4c.2-.4.5-.7.8-1.1.2-.3.6-.4.9-.2,0,0,.2,0,.3,0,1.6.7,4,1.1,6.4.9,1.9-.1,3.8-.5,5.5-1.4-.3-1.2-.8-3,0-5.3,1.2,6.6,6.4,14.2,10.8,18.7.2.2.3.5.2.8-.6,2.2-1.9,4.1-3.5,5.7-1.6,1.6-3.4,2.9-5.2,4.1-16.6,10.8-26.8-7.1-16.1-22.3Z"/>
        <path class="st2" d="M1574,128.8l-23.3-16.3-2.3,3.3c-.2.3-.7.4-1,.2-.3-.2-.4-.7-.2-1l2.3-3.3-3.7-2.6-4.6,6.5,33.1,23.2,4.6-6.5-3.7-2.6-2.3,3.3c-.2.3-.7.4-1,.2-.3-.2-.4-.7-.2-1l2.3-3.3Z"/>
      </g>
      <g id="nursing_home2" data-name="nursing_home">
        <path class="st1" d="M1553.6,196c.2.5.8.8,1.3.6l1.6-.6,2.5,6.6-7.1,2.7-4.4-11.4c-.8-2,.2-4.2,2.2-5,2-.8,4.2.3,5,2.3l1.1,2.9-1.6.6c-.5.2-.8.8-.6,1.3Z"/>
        <path class="st1" d="M1567.8,178c.1.2.2.4.2.6,0,.4-.3.8-.7.9l-6.1,2.4c-.2,0-.5,0-.8,0l-16.1-6.8-7.4,15.8c-.1.2-.3.4-.5.5l-6.2,2.4c-.4.1-.8,0-1.1-.2-.1-.2-.2-.4-.3-.6l-2.6,1,7.1,18.4,16.6-6.4-4.4-11.4c-1.2-3,.3-6.4,3.3-7.6s6.4.4,7.6,3.4l4.4,11.4,16.6-6.4-7.1-18.4-2.6,1ZM1542.4,202.3c.2.5,0,1.1-.6,1.3l-5.5,2.1c-.5.2-1.1,0-1.3-.6l-2.6-6.7c-.2-.5,0-1.1.6-1.3l5.5-2.1c.5-.2,1.1,0,1.3.6l2.6,6.7ZM1571.4,191.1c.2.5,0,1.1-.6,1.3l-5.5,2.1c-.5.2-1.1,0-1.3-.6l-2.6-6.7c-.2-.5,0-1.1.6-1.3l5.5-2.1c.5-.2,1.1,0,1.3.6l2.6,6.7Z"/>
        <rect class="st1" x="1564.5" y="186.6" width="3.8" height="5.2" transform="translate(36.2 573.8) rotate(-21)"/>
        <rect class="st1" x="1535.5" y="197.8" width="3.9" height="5.2" transform="translate(30.3 564.1) rotate(-21)"/>
        <polygon class="st1" points="1572 174.2 1565.4 176.8 1551 170.7 1560.1 167.2 1572 174.2"/>
        <path class="st1" d="M1564.3,178.5l-3.5,1.3-16.6-7c-.5-.2-1.1,0-1.3.5l-7.6,16.3-3.5,1.3,7.5-16.1,2.7-5.8,5.9,2.5h0s0,0,0,0l16.3,6.9Z"/>
        <polygon class="st1" points="1536.5 176.3 1529.9 190.4 1523.3 192.9 1527.4 179.7 1536.5 176.3"/>
      </g>
      <g id="questionnaire2" data-name="questionnaire">
        <path class="st4" d="M1398.1,19.2l-9.2,1.3.5,3.5c0,.5-.2.9-.6,1.2-.1,0-.3.1-.4.2l-20.7,2.9c0,0-.2,0-.2,0-.1,0-.3,0-.4,0,0,0-.1,0-.2,0-.3-.2-.5-.5-.6-.8l-.5-3.5-9.2,1.3c-.8.1-1.3.8-1.2,1.5l7.1,50.3c.1.7.8,1.2,1.6,1.1l41.5-5.9c.8-.1,1.3-.8,1.2-1.5l-7.1-50.3c-.1-.7-.8-1.2-1.6-1.1ZM1369.5,38.9c0-.6.3-1.2,1-1.3l4.3-.6-.6-4.1c0-.6.3-1.2,1-1.3l6.6-.9c.7,0,1.2.4,1.3,1l.6,4.1,4.3-.6c.7,0,1.2.4,1.3,1l.9,6.4c0,.6-.3,1.2-1,1.3l-4.3.6.6,4.1c0,.6-.3,1.2-1,1.3l-6.6.9c-.7,0-1.2-.4-1.3-1l-.6-4.1-4.3.6c-.7,0-1.2-.4-1.3-1l-.9-6.4ZM1402.6,67.9l-36.9,5.2c-.6,0-1.2-.4-1.3-1s.4-1.2,1-1.3l36.9-5.2c.6,0,1.2.3,1.3,1,0,.6-.4,1.2-1,1.3ZM1401.6,61.1l-36.9,5.2c-.6,0-1.2-.4-1.3-1s.4-1.2,1-1.3l36.9-5.2c.6,0,1.2.3,1.3,1s-.4,1.2-1,1.3ZM1400.6,53.6l-36.9,5.2c-.6,0-1.2-.4-1.3-1s.4-1.2,1-1.3l36.9-5.2c.6,0,1.2.4,1.3,1,0,.6-.4,1.2-1,1.3Z"/>
        <path class="st4" d="M1385.8,16.2l.9,6.4c0,.3-.2.6-.5.7l-17.2,2.4c-.3,0-.6-.2-.7-.5l-.9-6.4,4.4-.6c.6,0,1.1-.7,1-1.3-.2-1.8,1.2-3.4,3.2-3.7,2-.3,3.9.9,4.1,2.7s.7,1.1,1.3,1l4.3-.6Z"/>
        <path class="st4" d="M1387.4,38.1l.4,3c0,.3-.2.6-.5.7l-3.7.5c-.6,0-1.1.7-1,1.3l.5,3.6c0,.3-.2.6-.5.7l-3.1.4c-.3,0-.6-.2-.7-.5l-.5-3.6c0-.6-.7-1.1-1.3-1l-3.7.5c-.3,0-.6-.2-.7-.5l-.4-3c0-.3.2-.6.5-.7l3.7-.5c.6,0,1.1-.7,1-1.3l-.5-3.5c0-.3.2-.6.5-.7l3.1-.4c.3,0,.6.2.7.5l.5,3.5c0,.6.7,1.1,1.3,1l3.7-.5c.3,0,.6.2.7.5Z"/>
      </g>
      <g>
        <path class="st1" d="M1310,153.7c-1.1.2-2.1.8-2.7,1.7-.6.9-.9,2-.8,3.1l.3,2,8.3-1.3-.3-2c-.2-1.1-.8-2.1-1.7-2.7-.9-.6-2-.9-3.1-.8Z"/>
        <path class="st1" d="M1305.1,133.8c-.2,0-.3.1-.4.3-.1.1-.2.3-.1.5l1.8,11.2c.1.7.5,1.2,1,1.6.5.4,1.2.6,1.8.4.7-.1,1.2-.5,1.6-1,.4-.5.6-1.2.4-1.8l-1.8-11.2c0-.2-.1-.3-.3-.4-.1-.1-.3-.2-.5-.1l-3.5.6Z"/>
        <path class="st1" d="M1328.2,157.2c0-.6,0-1-.2-1.4-.1-.4-.3-.6-.6-.8-.2-.1-.3-.2-.5-.2l.3,2.1h0s0,0,0,0h0s0,0,0,0h0s0,0,0,0h0s0,0,0,0h0s0,0,0,0h0s0,0,0,0h0s0,0,0,0h0s0,0,0,0h0s0,0,0,0h0s0,0,0,0h0s0,0,0,0h0s0,0,0,0h0s0,0,0,0h0s0,0,0,0h0s0,0,0,0h0s0,0,0,0h0s0,0,0,0h0s0,0,0,0h0s0,0,0,0h0s0,0,0,0h0s0,0,0,0h0s0,0,0,0h0s0,0,0,0h0s0,0,0,0h0s0,0,0,0h0s0,0,0,0h0s0,0,0,0h0s0,0,0,0h0s0,0,0,0h0s0,0,0,0h0s0,0,0,0h0s0,0,0,0h0s0,0,0,0h0s0,0,0,0h0s0,0,0,0h0s0,0,0,0h0s0,0,0,0h0s0,0,0,0h0s0,0,0,0h0s0,0,0,0h0s0,0,0,0h0s0,0,0,0h0s0,0,0,0h0s0,0,0,0h0s0,0,0,0h0s0,0,0,0h0s0,0,0,0h0s0,0,0,0h0s0,0,0,0h0s0,0,0,0h0s0,0,0,0h0s0,0,0,0h0s0,0,0,0h0s0,0,0,0h0s0,0,0,0h0s0,0,0,0h0s0,0,0,0h0s0,0,0,0h0s-29.5,4.6-29.5,4.6h0s0,0,0,0h0s0,0,0,0h0s0,0,0,0h0s0,0,0,0c-.4,0-.7-.1-1-.3-.3-.2-.5-.5-.6-.9h0s0,0,0,0h0s0,0,0,0h0s0,0,0,0h0s0,0,0,0h0s-.3-2.1-.3-2.1c-.2,0-.3.2-.4.3-.2.2-.3.5-.3.9,0,.4,0,.9.3,1.4.5,1.2,1.9,2.5,4.3,3.5,4,1.6,9.1,1.9,14.1,1.2,4.9-.8,9.7-2.6,13-5.4,2-1.7,2.9-3.4,3-4.7Z"/>
        <path class="st1" d="M1295.5,159.2l.4,2.7h0s0,0,0,0h0s0,0,0,0h0s0,0,0,0h0c0,0,0,.1.1.2,0,0,.1,0,.2,0h0s0,0,0,0h0s0,0,0,0h0s0,0,0,0h0s9.6-1.5,9.6-1.5l-.3-2c-.2-1.4.2-2.8.9-3.9.8-1.1,2-1.9,3.4-2.1,1.4-.2,2.8.2,3.9.9,1.1.8,1.9,2,2.1,3.4l.3,2,9.6-1.5h0s0,0,0,0h0s0,0,0,0h0s0,0,0,0h0s0,0,0,0h0s0,0,0,0h0s0,0,0,0h0s0,0,0,0h0s0,0,0,0h0s0,0,0,0h0s0,0,0,0h0s0,0,0,0h0s0,0,0,0h0s0,0,0,0h0s0,0,0,0h0s0,0,0,0h0s0,0,0,0h0s0,0,0,0h0s0,0,0,0h0s0,0,0,0h0s0,0,0,0h0s0,0,0,0h0s0,0,0,0h0s0,0,0,0h0s0,0,0,0h0s0,0,0,0h0s0,0,0,0h0s0,0,0,0h0s0,0,0,0h0s0,0,0,0h0s0,0,0,0h0s0,0,0,0h0s0,0,0,0h0s0,0,0,0h0s0,0,0,0h0s0,0,0,0h0s0,0,0,0h0s0,0,0,0h0s0,0,0,0h0s0,0,0,0h0s0,0,0,0h0s0,0,0,0h0s0,0,0,0h0s0,0,0,0h0s0,0,0,0h0s0,0,0,0h0s0,0,0,0h0s0,0,0,0h0s0,0,0,0h0s0,0,0,0h0s0,0,0,0h0s0,0,0,0h0s0,0,0,0h0s0,0,0,0h0s0,0,0,0h0s0,0,0,0h0s0,0,0,0h0s0,0,0,0h0s0,0,0,0h0s0,0,0,0h0s0,0,0,0h0s0,0,0,0l-.4-2.7-.8-5.4c-.7-4.1-2.9-7.6-6.1-9.9-2.2-1.6-4.9-2.7-7.8-2.9l1.3,8.5c.2,1-.1,1.9-.6,2.6-.5.7-1.3,1.3-2.3,1.4s-1.9-.1-2.6-.6c-.7-.5-1.3-1.3-1.4-2.3l-1.3-8.5c-2.6,1.1-4.9,2.9-6.5,5.1-2.3,3.2-3.4,7.2-2.7,11.3l.8,5.4Z"/>
      </g>
      <g>
        <path class="st1" d="M1518,68c-.5-.5-1.1-.8-1.8-.8-.7,0-1.3.2-1.8.7l-.9.8,3.5,3.7.9-.8c.5-.5.8-1.1.8-1.8,0-.7-.2-1.3-.7-1.8Z"/>
        <path class="st1" d="M1526.2,58.7c0,0-.2-.1-.3-.1-.1,0-.2,0-.3.1l-5,4.7c-.3.3-.5.7-.5,1.1,0,.4.1.8.4,1.1.3.3.7.5,1.1.5.4,0,.8-.1,1.1-.4l5-4.7c0,0,.1-.2.1-.3,0-.1,0-.2-.1-.3l-1.5-1.6Z"/>
        <path class="st1" d="M1522.5,78.3c.3-.2.5-.4.7-.6.1-.2.2-.4.2-.6,0-.1,0-.2,0-.3l-.9.9h0s0,0,0,0h0s0,0,0,0h0s0,0,0,0h0s0,0,0,0h0s0,0,0,0h0s0,0,0,0h0s0,0,0,0h0s0,0,0,0h0s0,0,0,0h0s0,0,0,0h0s0,0,0,0h0s0,0,0,0h0s0,0,0,0h0s0,0,0,0h0s0,0,0,0h0s0,0,0,0h0s0,0,0,0h0s0,0,0,0h0s0,0,0,0h0s0,0,0,0h0s0,0,0,0h0s0,0,0,0h0s0,0,0,0h0s0,0,0,0h0s0,0,0,0h0s0,0,0,0h0s0,0,0,0h0s0,0,0,0h0s0,0,0,0h0s0,0,0,0h0s0,0,0,0h0s0,0,0,0h0s0,0,0,0h0s0,0,0,0h0s0,0,0,0h0s0,0,0,0h0s0,0,0,0h0s0,0,0,0h0s0,0,0,0h0s0,0,0,0h0s0,0,0,0h0s0,0,0,0h0s0,0,0,0h0s0,0,0,0h0s0,0,0,0h0s0,0,0,0h0s0,0,0,0h0s0,0,0,0h0s0,0,0,0h0s0,0,0,0h0s0,0,0,0h0s0,0,0,0h0s0,0,0,0h0s0,0,0,0h0s0,0,0,0h0s0,0,0,0h0s0,0,0,0h0s0,0,0,0h0s-12.5-13.1-12.5-13.1h0s0,0,0,0h0s0,0,0,0h0s0,0,0,0h0s0,0,0,0c-.1-.2-.2-.4-.2-.6,0-.2,0-.4.2-.6h0s0,0,0,0h0s0,0,0,0h0s0,0,0,0h0s0,0,0,0h0s.9-.9.9-.9c0,0-.2,0-.3-.1-.2,0-.4,0-.6.2-.2.1-.4.3-.6.6-.4.7-.6,1.8-.3,3.4.6,2.6,2.2,5.2,4.3,7.4s4.6,3.9,7.2,4.6c1.5.4,2.7.3,3.4,0Z"/>
        <path class="st1" d="M1510.3,62.7l-1.2,1.2h0s0,0,0,0h0s0,0,0,0h0s0,0,0,0h0s0,0,0,.1c0,0,0,0,0,.1h0s0,0,0,0h0s0,0,0,0h0s0,0,0,0h0s4,4.3,4,4.3l.9-.8c.6-.6,1.4-.9,2.3-.9.8,0,1.6.3,2.2,1,.6.6.9,1.4.9,2.3,0,.8-.3,1.6-1,2.2l-.9.8,4,4.3h0s0,0,0,0h0s0,0,0,0h0s0,0,0,0h0s0,0,0,0h0s0,0,0,0h0s0,0,0,0h0s0,0,0,0h0s0,0,0,0h0s0,0,0,0h0s0,0,0,0h0s0,0,0,0h0s0,0,0,0h0s0,0,0,0h0s0,0,0,0h0s0,0,0,0h0s0,0,0,0h0s0,0,0,0h0s0,0,0,0h0s0,0,0,0h0s0,0,0,0h0s0,0,0,0h0s0,0,0,0h0s0,0,0,0h0s0,0,0,0h0s0,0,0,0h0s0,0,0,0h0s0,0,0,0h0s0,0,0,0h0s0,0,0,0h0s0,0,0,0h0s0,0,0,0h0s0,0,0,0h0s0,0,0,0h0s0,0,0,0h0s0,0,0,0h0s0,0,0,0h0s0,0,0,0h0s0,0,0,0h0s0,0,0,0h0s0,0,0,0h0s0,0,0,0h0s0,0,0,0h0s0,0,0,0h0s0,0,0,0h0s0,0,0,0h0s0,0,0,0h0s0,0,0,0h0s0,0,0,0h0s0,0,0,0h0s0,0,0,0h0s0,0,0,0h0s0,0,0,0h0s0,0,0,0h0s0,0,0,0h0s0,0,0,0h0s0,0,0,0h0s0,0,0,0h0s0,0,0,0h0s0,0,0,0h0s0,0,0,0h0s0,0,0,0l1.2-1.2,2.4-2.3c1.8-1.7,2.8-4.1,2.8-6.4,0-1.7-.4-3.4-1.2-4.9l-3.8,3.6c-.4.4-1,.6-1.5.6-.5,0-1.1-.2-1.5-.7s-.6-1-.6-1.5c0-.5.2-1.1.7-1.5l3.8-3.6c-1.5-.9-3.1-1.4-4.8-1.5-2.4,0-4.7.8-6.6,2.5l-2.4,2.3Z"/>
      </g>
      <g>
        <path class="st1" d="M1465.8,67.6s-2.6-3.9-8.3-3c0-.6,0-1.3-.1-1.9,0,0,0,0,0,0-.4-.9-1.6-3.5-2.8-5.8.1,0,.2,0,.3,0h1.3c.2-.1.4-.3.4-.5l-.4-5c0-.2-.2-.4-.4-.4h-1.3c-1.6.2-2.8,1.6-2.7,3.1h-.2s-.8-1.6-.8-1.6c0-.2-.3-.3-.5-.3l-3.5.3c-.3,0-.5.3-.5.6s.3.5.6.5l3.1-.2.5,1h-.3c-.1,0-.2,0-.3.2,0,.1,0,.2,0,.3l4.4,10.1c0,.9-.8,7.6-4.1,7.8,0,0-4.6.3-4.6.3-1.3,0-2.7-1-2.9-3.3,0,0,1.6-4.8,1.6-5,0-.1,0-.2,0-.2l-15.8,1.1c-1.2.4-2.3,1.1-3.1,2.1-2.6,3.1-2.3,7.7-2.3,7.9,0,.2.2.4.4.3l3-.2c.4,2.9,3,4.9,5.9,4.7,2.9-.2,5.1-2.6,5.1-5.5h.7c0,0,2.9,2.3,2.9,2.3,0,0,.2,0,.3,0l8.9-.6c1.7-.1,3.2-1,4.5-2.5,0-.1.2-.2.3-.3.5,2.8,3,4.7,5.8,4.5,3-.2,5.3-2.9,5.1-5.9-.1-1.7-1-3.1-2.2-4.1h1.9c.1-.1.3-.2.3-.3,0-.1,0-.3,0-.4ZM1432.1,77.6c-1.4.1-2.6-.9-2.9-2.2l5.5-.4c0,1.4-1.2,2.5-2.6,2.6ZM1437.7,70.2l-8.3.6c-.2,0-.4-.1-.4-.4s.1-.4.4-.4l8.3-.6c.2,0,.4.1.4.4s-.1.4-.4.4ZM1460.5,75.5c-1.5.1-2.9-1-3-2.6,0-1,.4-1.8,1.1-2.4l1.2,2.4c0,.2.3.3.5.3s.1,0,.2,0c.3-.1.4-.5.2-.7l-1.2-2.4c.2,0,.4,0,.5,0,1.5-.1,2.9,1,3,2.6.1,1.5-1,2.9-2.6,3Z"/>
        <path class="st1" d="M1443.9,63.6l-.5-1.3c-.5-1.2-1.4-1.9-2.5-2,0,0,0,0,0,0h-9.6c0,0,0,0,0,0-1.3,0-2.2,1.2-2.1,2.4v1.8c.1,0,14.8-1.1,14.8-1.1Z"/>
      </g>
      <g>
        <path class="st4" d="M1321.7,126.6c0,.4,0,.8-.2,1.1-.1.4-.3.7-.4.9-.2.3-.3.5-.5.7-.5.7-1.2,1.2-1.8,1.5s-1.4.5-2.1.4c-.7,0-1.5-.4-2.2-1-.7-.6-1.2-1.2-1.5-1.9-.3-.7-.4-1.4-.2-2.2.1-.8.5-1.5,1-2.2.1-.2.3-.4.5-.6.2-.2.5-.4.8-.7s.7-.4,1.1-.5l1.1,2c-.3.2-.6.3-.8.5-.2.1-.4.3-.6.6-.2.2-.3.5-.3.8,0,.3,0,.6.1.9s.4.6.7.8c.3.2.6.4.9.4.3,0,.6,0,.8-.1s.5-.3.6-.5.3-.4.4-.7.2-.5.3-.9l2.2.6Z"/>
        <path class="st4" d="M1322.7,126.4l-6.2-5.4,1-1.2h1.2c0-.2,0-.5.2-.8,0-.3.2-.7.3-1s.3-.6.5-.8l2.3,1.1c-.2.2-.3.5-.5.7-.1.3-.3.6-.4.9,0,.3-.1.6-.2.9l3.7,3.2-2,2.3Z"/>
        <path class="st4" d="M1326.6,117.1c.2.1.4.2.7.2.2,0,.5,0,.7-.2.2-.1.5-.3.7-.5.3-.4.6-.7.8-1.1s.3-.7.4-.9l2.1.8c0,.3-.1.6-.3.9-.2.4-.4.7-.6,1.1-.3.4-.5.7-.9,1.1-.7.7-1.4,1.2-2.1,1.5-.8.3-1.5.4-2.3.2-.8-.1-1.5-.5-2.1-1.2-.7-.6-1.1-1.3-1.3-2.1-.2-.7-.2-1.5,0-2.2.2-.7.6-1.4,1.2-2,.6-.6,1.3-1,2-1.2.7-.1,1.4,0,2,.2.7.2,1.3.6,1.8,1.2l.6.6-3.5,3.6ZM1327,114.5c-.1-.1-.3-.2-.4-.3-.2,0-.4-.1-.6,0-.2,0-.4.1-.6.3-.1.1-.2.3-.3.5,0,.2,0,.4,0,.6s.2.4.3.5l1.5-1.5Z"/>
        <path class="st4" d="M1328.1,109.3c.1-.3.3-.6.5-1,.2-.3.5-.7.8-1,.3-.4.6-.7.9-1,.6-.5,1.1-.8,1.7-.9.6-.1,1.1,0,1.6.1.5.2,1,.6,1.5,1.1l3.4,3.8-1.1,1h-1.2c0,.4,0,.7-.1,1.1-.1.3-.3.6-.6.9-.8.7-1.5,1-2.3.9-.7,0-1.4-.4-1.9-1-.6-.7-.8-1.3-.6-2s.7-1.3,1.4-1.9l.7-.7h0c-.2-.2-.5-.3-.7-.3-.2,0-.4.1-.6.3-.2.2-.4.4-.7.8-.2.3-.4.6-.6,1l-2.1-1.1ZM1333.5,111.8c0,0,.2,0,.3,0,0,0,.2,0,.3-.1.1-.1.2-.3.3-.4,0-.2.1-.4.2-.6l-.5-.6-.7.6c-.2.1-.2.3-.3.5,0,.2,0,.3.2.5,0,0,.2.1.3.2Z"/>
        <path class="st4" d="M1341.3,101.6l-2,1.5,1.2,1.6c.2.3.4.4.7.5s.5,0,.7-.2c.1-.1.3-.2.4-.4.1-.2.3-.4.3-.6l2,1.2c0,.2-.1.4-.3.6-.1.2-.3.5-.5.7-.2.2-.4.4-.6.6-.5.4-1.1.7-1.7.8-.6.2-1.2.2-1.8,0-.6-.2-1.1-.5-1.5-1.1l-1.4-1.9-1,.8-1.5-1.9,1-.8-1.3-1.8,2.2-2.2,1.6,2.1,1.7-1.3,1.7,1.8Z"/>
        <path class="st4" d="M1340.7,96.7c-.5,0-.8-.3-1.1-.7-.3-.4-.3-.8-.2-1.3,0-.5.3-.8.7-1.1.4-.3.8-.3,1.3-.2s.8.3,1.1.7c.2.4.3.8.2,1.3-.1.5-.3.8-.7,1.1-.4.2-.8.3-1.3.2ZM1345.8,105.2l-4.5-6.9,2.6-1.7,4.5,6.9-2.6,1.7Z"/>
        <path class="st4" d="M1351.8,101.5l-6.3-5.4,2.1-2.1,3.8,3.6-.8-4.9,2.7-1.5,1,8.8-2.6,1.4Z"/>
        <path class="st4" d="M1359.3,94.2c.2.2.3.3.6.4s.4.1.7.1c.3,0,.6,0,.9-.2.5-.2.9-.4,1.2-.7s.6-.5.7-.7l1.6,1.6c-.1.2-.4.5-.6.7-.3.3-.6.5-1,.7-.4.2-.8.4-1.2.6-.9.3-1.7.5-2.5.5-.8,0-1.5-.3-2.2-.7s-1.1-1.1-1.5-2c-.3-.9-.4-1.7-.3-2.4.1-.8.4-1.4.9-2s1.1-1,1.9-1.3c.8-.3,1.6-.4,2.3-.3.7.2,1.3.5,1.8,1,.5.5.9,1.1,1.2,1.8l.3.8-4.7,1.8ZM1360.7,92c0-.1-.2-.3-.3-.4-.1-.1-.3-.2-.5-.3s-.4,0-.6,0c-.2,0-.3.2-.4.3-.1.2-.2.3-.2.5,0,.2,0,.4,0,.6l2-.8Z"/>
      </g>
      <g>
        <path class="st4" d="M1376.6,249.6l4.9-10.8,2.9,1.1-5,10.9-2.8-1.3ZM1381.8,243.9c.3,0,.7,0,1.1,0,.4,0,.8,0,1.2,0,.4,0,.8.2,1.2.4.6.3,1.1.7,1.4,1.1.3.4.4.9.4,1.4,0,.5-.1,1.1-.4,1.6l-2.2,4.8-2.8-1.3,2.1-4.6c.1-.2.2-.5.1-.7,0-.2-.2-.4-.5-.6-.1,0-.3,0-.5-.1-.2,0-.4,0-.6,0-.2,0-.4,0-.6,0v-2Z"/>
        <path class="st4" d="M1390.2,255.7c-.8-.3-1.5-.8-2-1.3-.5-.6-.9-1.2-1-1.9-.1-.7,0-1.6.3-2.5.3-.9.8-1.5,1.4-2,.6-.4,1.3-.7,2.1-.8.8,0,1.6,0,2.4.4.8.3,1.5.8,2.1,1.3s.9,1.2,1,2c.1.8,0,1.6-.3,2.5-.3.9-.8,1.5-1.4,1.9-.6.4-1.3.7-2.1.7-.8,0-1.6,0-2.4-.4ZM1391.1,253.4c.3.1.6.2.8.1.3,0,.5-.2.7-.4.2-.2.4-.5.5-.8.1-.3.2-.7.2-1,0-.3,0-.6-.2-.8s-.3-.4-.6-.5c-.3-.1-.6-.1-.8,0-.3,0-.5.2-.7.4-.2.2-.4.5-.5.9-.1.3-.2.7-.2,1,0,.3,0,.6.2.8.1.2.4.4.6.5Z"/>
        <path class="st4" d="M1396.3,257.9l2.4-7.9,1.8.5.3,1c.3,0,.7-.2,1-.2.4,0,.8,0,1.2,0,.4,0,.8,0,1.2.2.7.2,1.2.5,1.5.9.3.4.5.8.5,1.4,0,.5,0,1.1-.2,1.6l-1.6,5.1-3-.9,1.5-4.8c0-.2,0-.3.1-.5,0-.2,0-.3,0-.4,0-.1-.2-.2-.5-.3,0,0-.2,0-.4,0-.2,0-.4,0-.6,0s-.4,0-.6,0l-1.6,5.3-3-.9ZM1406,253.2c.3,0,.7-.2,1-.2.4,0,.8,0,1.2,0,.4,0,.8,0,1.2.2.7.2,1.2.5,1.5.9.3.4.5.8.5,1.4,0,.5,0,1.1-.2,1.6l-1.6,5.1-3-.9,1.5-4.8c0-.2,0-.3.1-.5,0-.2,0-.3,0-.4,0-.1-.2-.2-.5-.3,0,0-.2,0-.4,0-.2,0-.4,0-.6,0-.2,0-.4,0-.6,0v-2Z"/>
        <path class="st4" d="M1415.3,259.9c0,.2,0,.5.2.7s.3.4.5.5c.2.1.5.3.8.3.5.1.9.2,1.3.1.4,0,.7,0,1-.1l.4,2.2c-.2.1-.6.2-.9.2-.4,0-.8,0-1.2,0-.4,0-.9,0-1.4-.2-.9-.2-1.7-.6-2.4-1.1-.7-.5-1.1-1.1-1.4-1.8-.3-.7-.3-1.5,0-2.4.2-.9.6-1.6,1.1-2.2.5-.6,1.2-.9,1.9-1.1.7-.2,1.5-.2,2.3,0,.9.2,1.5.6,2,1.1.5.5.8,1.1.9,1.8.1.7.1,1.4,0,2.2l-.2.9-4.9-1.1ZM1417.7,258.9c0-.2,0-.3,0-.5,0-.2-.1-.4-.2-.5-.1-.2-.3-.3-.6-.3-.2,0-.4,0-.6,0-.2,0-.4.2-.5.3-.1.1-.2.3-.3.5l2.1.5Z"/>
        <path class="st4" d="M1428.9,266.3c-.1.7-.4,1.3-.9,1.8-.5.5-1.1.8-1.8,1-.7.2-1.5.2-2.4,0-.2,0-.4,0-.7-.2-.3,0-.6-.2-1-.3-.4-.1-.7-.3-1-.5-.3-.2-.6-.4-.9-.6l1.3-2c.5.4,1,.6,1.4.8s.8.2,1.1.3c.5,0,.9,0,1.2-.1.3-.2.5-.4.6-.7l1.1-6.4,1.9-1.6,1.5.3-1.5,8.4ZM1427.9,264.6c-.2.2-.5.4-.9.6-.4.2-.7.3-1.2.4-.4,0-.8,0-1.3,0-.8-.1-1.5-.4-2.1-.8-.6-.4-1-1-1.2-1.7-.3-.7-.3-1.5-.1-2.5.2-1,.5-1.7,1-2.3.5-.6,1.1-1,1.8-1.2.7-.2,1.5-.2,2.3,0,.3,0,.7.2,1,.3.3.2.6.4.9.6.3.3.5.6.8,1l-1.2,1.6c-.3-.4-.5-.6-.8-.9-.3-.2-.6-.4-.9-.4-.2,0-.5,0-.7.1s-.4.3-.6.6c-.2.3-.3.6-.4,1,0,.4,0,.8,0,1.1,0,.3.2.6.4.7.2.2.5.3.8.4.3,0,.6,0,.9-.2.3-.2.7-.4,1-.6l.5,2.1Z"/>
        <path class="st4" d="M1431.1,266.4l1-8.2,1.5.2.6,1.1c.2-.1.5-.3.9-.4.3-.1.7-.2,1-.3.4,0,.7,0,1,0l.3,2.5c-.3,0-.6,0-.9,0-.3,0-.6.1-1,.2-.3,0-.6.2-.9.4l-.6,4.8-3.1-.4Z"/>
        <path class="st4" d="M1442.2,267.7c-.9,0-1.7-.3-2.3-.7-.7-.4-1.2-.9-1.5-1.6-.3-.7-.5-1.5-.4-2.5,0-.9.3-1.7.8-2.3.5-.6,1.1-1.1,1.8-1.4.7-.3,1.5-.4,2.4-.3.9,0,1.7.3,2.4.7.7.4,1.2.9,1.5,1.6.4.7.5,1.5.4,2.5,0,.9-.3,1.7-.8,2.3-.5.6-1.1,1-1.8,1.3-.7.3-1.5.4-2.4.3ZM1442.4,265.2c.3,0,.6,0,.8-.1.2-.1.4-.3.6-.5.1-.3.2-.6.3-1,0-.4,0-.7,0-1,0-.3-.2-.5-.4-.7-.2-.2-.5-.3-.8-.3-.3,0-.6,0-.8.2-.2.1-.4.3-.6.6-.1.3-.2.6-.3,1,0,.4,0,.7,0,1,0,.3.2.5.4.7.2.2.5.3.8.3Z"/>
        <path class="st4" d="M1455.9,268l-1.3-4.3-1.3,4.3h-2.8s-2.5-7.7-2.5-7.7l2.9-.8,1.2,5,1.1-4.7h2.9s1.2,4.7,1.2,4.7l1.1-4.7h3.1s-2.7,8.2-2.7,8.2h-2.8Z"/>
        <path class="st4" d="M1463.1,267.8l-.7-8.2h1.8c0-.1.6.7.6.7.3-.2.6-.4.9-.6.3-.2.7-.4,1.1-.5.4-.1.8-.2,1.3-.3.7,0,1.3,0,1.7.3.5.2.8.6,1.1,1.1.2.5.4,1,.4,1.6l.4,5.3-3.1.2-.4-5c0-.3-.1-.5-.2-.7-.1-.2-.4-.3-.7-.2-.1,0-.3,0-.5.1s-.4.1-.6.2c-.2,0-.4.2-.6.3l.4,5.5-3.1.2Z"/>
      </g>
      <g>
        <path class="st4" d="M1446.1,11c.2,0,.5.1.8.2.3,0,.6,0,.9.1.3,0,.5,0,.7,0,.1,0,.3,0,.4,0,.1,0,.2-.1.2-.2,0,0,0-.1,0-.2,0,0,0,0-.1-.1,0,0-.2-.1-.3-.1s-.3,0-.4-.1c-.5,0-.9-.2-1.4-.4-.5-.2-.9-.4-1.2-.7-.3-.3-.5-.7-.6-1.2-.1-.9.1-1.6.7-2.1.6-.6,1.4-.9,2.6-1.1.2,0,.5,0,.9,0,.4,0,.8,0,1.2.1.4,0,.8.2,1.1.4l-.6,2.1c-.3-.1-.7-.2-1.1-.2-.4,0-.7,0-1,0-.2,0-.4,0-.6.2-.1,0-.2.2-.2.3,0,0,0,.1.3.2.2,0,.4.1.6.2.5.1.9.2,1.4.4.5.2.9.4,1.2.7s.5.7.6,1.2c.1.9,0,1.6-.6,2.1-.5.6-1.3.9-2.5,1.1-.2,0-.6,0-1,0-.4,0-.9,0-1.4-.1-.5,0-.9-.2-1.2-.4l.6-2.1Z"/>
        <path class="st4" d="M1453.1,3c-.4-.3-.6-.7-.6-1.1,0-.5,0-.9.4-1.2.3-.4.7-.6,1.1-.6.5,0,.9,0,1.2.4.4.3.6.7.6,1.2,0,.5,0,.9-.4,1.2-.3.4-.7.6-1.2.6-.5,0-.9,0-1.2-.4ZM1453.6,12.8l-.7-8.2,3.1-.3.7,8.2-3.1.3Z"/>
        <path class="st4" d="M1458.2,12.4l-.3-8.2h1.8c0,0,.6.8.6.8.3-.2.6-.4.9-.6.4-.2.7-.3,1.1-.5.4-.1.8-.2,1.3-.2.7,0,1.3,0,1.7.4.4.3.8.6,1,1.1.2.5.3,1,.4,1.6l.2,5.3h-3.1c0,.1-.2-4.9-.2-4.9,0-.3,0-.5-.2-.7-.1-.2-.4-.3-.7-.3-.1,0-.3,0-.5,0-.2,0-.4.1-.6.2-.2,0-.4.2-.6.2l.2,5.5h-3.1Z"/>
        <path class="st4" d="M1475.2,11.7c-.3.2-.7.4-1,.5-.4.1-.7.2-1,.2s-.6,0-.8,0c-.9,0-1.7-.2-2.3-.6s-1.2-.9-1.5-1.5c-.4-.7-.5-1.4-.5-2.4,0-.9.2-1.7.6-2.4.4-.6.9-1.1,1.6-1.5.7-.3,1.5-.5,2.4-.5.2,0,.5,0,.8,0,.3,0,.6.1,1,.3.3.1.7.3,1,.6l-.9,2.1c-.3-.2-.6-.3-.8-.4-.2,0-.5-.1-.8-.1-.3,0-.5,0-.8.2-.3.1-.5.4-.6.6-.2.3-.2.6-.3,1,0,.4,0,.7.2,1,.1.3.3.5.6.6.2.1.5.2.8.2s.5,0,.8,0c.3,0,.5-.2.9-.3l.8,2.2Z"/>
        <path class="st4" d="M1479.2,9.3c0,.2.2.4.3.6.1.2.3.3.6.4.2.1.5.2.9.2.5,0,.9,0,1.3,0,.4,0,.7-.2,1-.3l.7,2.2c-.2.1-.5.3-.9.4s-.8.2-1.2.2c-.4,0-.9,0-1.4,0-.9,0-1.8-.3-2.5-.7-.7-.4-1.3-.9-1.6-1.6-.4-.7-.5-1.5-.4-2.4,0-.9.4-1.7.8-2.3.5-.6,1-1.1,1.7-1.4.7-.3,1.5-.4,2.3-.3.9,0,1.6.3,2.1.8.5.4.9,1,1.2,1.7.2.7.3,1.4.2,2.2v.9c0,0-5.1-.5-5.1-.5ZM1481.4,8c0-.2,0-.3,0-.5,0-.2-.2-.4-.3-.5-.1-.1-.3-.2-.6-.3-.2,0-.4,0-.5.1-.2,0-.3.2-.4.4-.1.2-.2.4-.2.6l2.1.2Z"/>
        <path class="st4" d="M1495.4,15.3l1.4-6-2.1.4-.6-2.7,4.5-.8,2,.5-2.2,9.4-3-.7Z"/>
        <path class="st4" d="M1507,14.6c-.4.1-.9.2-1.3.3-.4,0-.9,0-1.2-.1-.8-.2-1.4-.6-1.9-1.1-.5-.5-.9-1-1-1.6-.2-.6-.2-1.2,0-1.9.2-.7.6-1.2,1-1.6.5-.4,1.1-.6,1.8-.7.7,0,1.5,0,2.3.3.9.3,1.7.7,2.3,1.3s1,1.3,1.2,2.1c.2.8.2,1.6-.1,2.4-.3,1-.7,1.8-1.3,2.4-.6.6-1.2,1-1.9,1.3-.7.3-1.4.4-2.2.5-.7,0-1.5,0-2.2,0-.7,0-1.3-.2-1.8-.3l.6-2.8c.3,0,.7.1,1.2.2.4,0,.9.1,1.3.1.5,0,.9,0,1.3-.1s.8-.3,1.1-.7c.3-.3.6-.8.8-1.4.1-.4.2-.8.2-1.1,0-.3-.1-.6-.3-.9-.2-.3-.4-.4-.8-.5-.2,0-.4,0-.6,0-.2,0-.4.2-.6.3s-.3.3-.4.6c0,.2,0,.4,0,.6,0,.2.2.4.3.6s.4.3.6.4c.3,0,.6.1,1,0,.3,0,.7-.2,1-.3.4-.2.7-.3,1-.5l-.2,2c-.4.2-.8.4-1.3.5Z"/>
        <path class="st4" d="M1510,20.3l6-5.9-4.3-1.8.7-2.4,7.1,3v1.4c0,0-7,7.6-7,7.6l-2.5-1.9Z"/>
        <path class="st4" d="M1518.9,20.2l3.3-5.7,5.9,3.1-1.4,2-3.4-1.7-.5,1c.2,0,.3,0,.5,0s.4.1.6.2c.7.4,1.2.8,1.5,1.4.3.5.4,1.1.4,1.8s-.2,1.2-.5,1.8c-.4.7-.8,1.2-1.4,1.6-.6.4-1.2.6-2,.6-.7,0-1.5-.2-2.3-.6-.4-.2-.7-.4-1.1-.8-.4-.3-.7-.7-1.1-1.1-.3-.4-.6-.8-.8-1.2l2.4-1.2c.3.5.6.9.9,1.2.3.3.6.6,1,.8.4.2.7.2,1.1.2.4,0,.6-.3.8-.7.2-.3.2-.6.1-.9,0-.3-.3-.5-.5-.6-.2-.1-.5-.2-.7,0-.2,0-.4.1-.6.3l-2.3-1.2Z"/>
      </g>
      <path class="st5" d="M1536.5,39.1c.3,12.5,31.3,16.4,28.6,23.4-9.7,25.3-49.7,36.7-33.3,54.8,22.5,24.8,36.8,24.2,36.8,24.2,0,0,14.8,10.3,8,15.6-8,6.3-38.2,7.8-43.1,8.2-9.1.7-1.1-20.9-7.6-34-12.9-26.2-29.4-30.9-8.5-39,20.8-8.1,19.1-53.1,19.1-53.1Z"/>
      <path class="st5" d="M1611.1,182.8c-10.4,25.1-51.8,41.8-55,60.5-1.7,10.2-4.4,30.7,5.5,21.5,8.3-7.7,27.8-44.6,40.2-45,27.2-.7,9.3-37,9.3-37Z"/>
      <path class="st5" d="M1381.1,148.1c2.9-13.7-19.9,25-4,68,15.9,43,75.7,27.2,75.7,27.2,0,0-92.2.6-71.7-95.2Z"/>
      <path class="st5" d="M1329.2,40.7s-32.2,21.9-41.6,58.8c-9.4,36.9,25.5-46.4,41.6-58.8Z"/>
      <path class="st1" d="M1446.8,21.9c19.3,25.2,16.8,33.8,51.4,33.1,34.7-.7,25.1-22,25.1-22,0,0,5.4-1.5-29.4-11.4-43.7-12.6-47.1.4-47.1.4Z"/>
      <path class="st5" d="M1375.1,310.2c35.1,18.4,114.1,17.1,132.4,4.7,0,0-4.1-8.6-22.7-10-11.7-.9-29.4,10.4-43.8,8.9-39.9-4.1-73.7-7.7-65.9-3.6Z"/>
      <path class="st5" d="M1538.1,24.8c28.4-2.1,48.3,31.8,53.3,39.9,0,0-15.7-8.6-34.6-16.4-18.8-7.8-29.6-22.7-18.8-23.5Z"/>
      <path class="st1" d="M1474.4,59.5c5.6,16,3,32.3,39.1,32.2,0,0-16.5-.9-16.3-20.7.2-19.8-22.8-11.5-22.8-11.5Z"/>
      <path class="st0" d="M1614.8,102.9c13,35.4,8.9,60.4,7.7,77.2-1.2,16.8-7.1-19.3-31.1,0-24,19.3-11.3-14.6,1.5-25.2,4.8-3.9-1.1-26.5,2.4-35.4,5.8-14.7,19.5-16.6,19.5-16.6Z"/>
      <path class="st0" d="M1517.5,210.5c-7,10-22.7,26.7-28.6,27.1-2.3.1,13.9,10,25.3,8.5,7.5-1,20.5-10.2,29-11.6,11.7-2,34.4-26.2,38.4-31.1,5.5-6.8-36.5,17.3-51.8,14.9-11.6-1.8-12.3-7.9-12.3-7.9Z"/>
      <path class="st0" d="M1335.6,126.3c-6.9,3.8-7,20.4-.2,35.3,6.9,14.9,18.6,13.8,24.1,15.8,5.6,1.9,15.3-18.1,5.8-28.1-9.5-10-15-37-22.4-30l-7.4,7Z"/>
      <path class="st0" d="M1283,157c6,12.5,21.1,22.4,40,18,18.9-4.4,27.6,7.8,18.2,9.6-9.4,1.8-11,17.1-25.4,18.9-14.4,1.7-20.2,1.9-29.9-4.8-9.7-6.7-2.9-41.6-2.9-41.6Z"/>
      <path class="st0" d="M1285.6,128.9c7.1-8,12.5-44.2,24.6-40.6,12.1,3.6,30,5.2,18,11.2-12,6-26,28.2-33.8,35.3-7.8,7.1-18.3,4.7-8.8-5.9Z"/>
      <path class="st0" d="M1331.5,41.6c6.4-4.9,18.4-20.6,20.6-4.7,2.2,15.8,11.9,44.5,6.4,44.7-2.2,0-18.5-1.1-14.2-4.5,7.8-6.3,1.2-19.6-3-21.2-17.5-6.7-9.8-14.2-9.8-14.2Z"/>
      <path class="st0" d="M1405.1,16.1c1.5-14.5,18.3-13.9,26.3-5.5,8.1,8.4,26.9,28.8,12.9,33.4-14,4.6-22.4,11.9-26.8,24.7-4.4,12.8-13.6-41.1-12.4-52.6Z"/>
      <path class="st0" d="M1372.8,97.2c-3.8-8.3,4-12.1,28.8-16.9,24.8-4.8,0,11.5-9.3,22.5-9.2,11-10.9,13.5-19.6-5.6Z"/>
      <path class="st0" d="M1395.5,300c2.4-6.3-1.1-38.3,5.1-33.4,6.1,4.9,27.2,13.8,33.9,10.3s-6.5,18.1,1.6,25.3c8.1,7.2-40.6-2.2-40.6-2.2Z"/>
      <path class="st0" d="M1337,281.7c-11.9-.9,24.6,16.4,28.4,18.3,3.7,1.9-6.7-14.9,0-32,6.7-17.1,11.4-28.7,14.4-31.4,3-2.7-6.1-21.7-11.4-13.4-5.3,8.3-8,30.4-14.7,24-6.7-6.4-5.2,35.3-16.6,34.5Z"/>
      <path class="st0" d="M1358.5,200.3c1.4-9.6-9.7-16.8,0-14.5,9.7,2.3,9,21.2,10.8,27.4,1.8,6.1-10.6,8.8-9.9,0,.7-8.8-1-12.8-1-12.8Z"/>
      <path class="st0" d="M1460,251.4c6.4-4,26.4-10.4,28.7,0,2.3,10.4,3.7,21.1-3.8,13.7-7.5-7.5-24.9-13.7-24.9-13.7Z"/>
      <path class="st1" d="M1560.1,272.8c11.7-8.1,22-15,37.4-43.4,5.9-10.9,14.2,19.7-6,35.8-8.5,6.7-26.2,23.2-31.4,23.7-7.1.8,0-16.1,0-16.1Z"/>
      <g>
        <path class="st1" d="M1342.8,64.6l-9.6-7.2c0,0-.2,0-.3-.1l-12-1c-.2,0-.5.1-.6.3l-4,10.3c-2.6,6.8-.4,14.7,5.5,19,0,0,0,0,.1,0s0,0,.1,0c7.3.6,14.2-3.7,16.8-10.5l4-10.3c0-.2,0-.5-.2-.6ZM1338,75.2c-2.4,6.3-8.8,10.3-15.5,9.8-5.4-4.1-7.4-11.4-5-17.7l3.8-10,11.4,1,9.1,6.9-3.8,10Z"/>
        <path class="st1" d="M1322.3,59.1l-3.4,8.8c-2.1,5.5-.4,11.8,4.1,15.5,5.8.2,11.3-3.3,13.4-8.8l3.4-8.8-7.8-5.8-9.7-.8ZM1333.1,70.5c.1.3,0,.6-.3.7l-7.1,3.2c-.1,0-.3,0-.4,0s-.2-.2-.3-.3l-1.9-4.3c-.1-.3,0-.6.3-.7.3-.1.6,0,.7.3l1.7,3.8,6.6-3c.3-.1.6,0,.7.3Z"/>
      </g>
    </g>
    <g>
      <path class="st1" d="M1323.5,403.7l-26.7-48.3h15.9l18.2,34.1,16.9-34.1h15.5l-47.3,91.6h-15.7l23.2-43.3Z"/>
      <path class="st1" d="M1424.6,388.3h-42.5c.4,4.9,1.9,8.8,4.8,11.6,2.8,2.8,6.4,4.3,10.8,4.3s6.2-.8,8.5-2.4c2.2-1.6,4.7-4.6,7.5-9l11.6,6.5c-1.8,3-3.7,5.7-5.7,7.8-2,2.2-4.1,4-6.4,5.4-2.3,1.4-4.7,2.4-7.4,3.1-2.6.6-5.5,1-8.6,1-8.9,0-16-2.8-21.3-8.5-5.4-5.7-8-13.3-8-22.8s2.6-17,7.8-22.8c5.2-5.7,12.2-8.6,20.8-8.6s15.6,2.8,20.7,8.3c5,5.5,7.6,13.2,7.6,23v3.2ZM1410.5,377.1c-1.9-7.3-6.5-11-13.8-11s-3.2.3-4.7.8c-1.5.5-2.8,1.2-4,2.2-1.2,1-2.2,2.1-3.1,3.4-.9,1.3-1.5,2.9-1.9,4.6h27.5Z"/>
      <path class="st1" d="M1483.3,355.4h13.8v59.3h-13.8v-6.2c-5.6,5.3-11.7,7.9-18.2,7.9s-15-3-20.3-8.9c-5.3-6.1-8-13.6-8-22.7s2.7-16.3,8-22.2c5.3-5.9,12-8.9,20-8.9s13.1,2.8,18.6,8.5v-6.9ZM1450.8,384.9c0,5.7,1.5,10.3,4.6,13.9,3.1,3.6,7.1,5.4,11.8,5.4s9.2-1.7,12.3-5.2c3.1-3.6,4.7-8.2,4.7-13.8s-1.6-10.2-4.7-13.8c-3.1-3.5-7.2-5.3-12.2-5.3s-8.7,1.8-11.8,5.4c-3.1,3.6-4.7,8.1-4.7,13.4Z"/>
      <path class="st1" d="M1514.4,355.4h13.7v5.3c2.5-2.6,4.8-4.4,6.7-5.4,2-1,4.3-1.5,7.1-1.5s7.4,1.2,11.3,3.5l-6.3,12.5c-2.6-1.9-5.1-2.8-7.6-2.8-7.5,0-11.2,5.6-11.2,16.9v30.8h-13.7v-59.3Z"/>
      <path class="st1" d="M1595.5,365.5l-11.3,6c-1.8-3.7-4-5.5-6.6-5.5s-2.3.4-3.2,1.2c-.9.8-1.3,1.9-1.3,3.2,0,2.3,2.6,4.5,7.9,6.8,7.3,3.1,12.2,6,14.7,8.7,2.5,2.6,3.8,6.2,3.8,10.7s-2.1,10.5-6.3,14.4c-4.1,3.7-9.1,5.5-14.9,5.5-10,0-17-4.9-21.1-14.6l11.7-5.4c1.6,2.8,2.9,4.7,3.7,5.4,1.7,1.5,3.7,2.3,6,2.3,4.6,0,6.9-2.1,6.9-6.3s-1.8-4.7-5.4-6.8c-1.4-.7-2.8-1.4-4.1-2-1.4-.6-2.8-1.3-4.2-2-4-1.9-6.8-3.9-8.4-5.8-2.1-2.5-3.1-5.7-3.1-9.6s1.8-9.4,5.3-12.8c3.6-3.4,8-5.1,13.2-5.1,7.6,0,13.2,3.9,16.9,11.8Z"/>
    </g>
  </g>
</svg>