<svg width="108" height="28" viewBox="0 0 108 28" fill="none" xmlns="http://www.w3.org/2000/svg">
    <path d="M57.2083 11.3093C56.2929 11.3093 55.4197 11.1265 54.6169 10.8311L54.5042 26.29C54.5042 26.726 54.7436 27.0074 55.1662 27.0214L59.0674 27.0496C59.504 27.0496 59.7434 26.7682 59.7434 26.3322L59.856 10.817C59.0392 11.1405 58.1378 11.3234 57.1942 11.3234L57.2083 11.3093Z" fill="#02ADEF"/>
    <path d="M57.2083 8.13035C59.4562 8.13035 61.2785 6.31031 61.2785 4.06517C61.2785 1.82004 59.4562 0 57.2083 0C54.9604 0 53.1381 1.82004 53.1381 4.06517C53.1381 6.31031 54.9604 8.13035 57.2083 8.13035Z" fill="#C80F1E"/>
    <path d="M0 14.7275C0.0563351 7.80682 4.90116 2.50381 12.0839 2.56007C19.168 2.61634 23.2101 7.97561 23.1678 13.8413C23.1537 15.909 22.7171 16.9218 20.9285 16.9077L5.04199 16.7952C5.63351 20.5509 8.40802 23.0688 13.0838 23.111C15.3936 23.1251 17.2808 22.5624 19.168 21.3246C19.4638 21.1276 19.7455 21.1839 19.9426 21.4793L21.2806 23.322C21.5623 23.7158 21.4637 23.9972 21.0834 24.377C18.999 26.3744 15.9569 27.3168 12.6331 27.2887C4.92932 27.2324 -0.042251 21.7606 0.0140841 14.7415L0 14.7275ZM18.5483 13.1239C18.2948 9.26972 15.7597 6.94877 12.0416 6.92064C8.3376 6.89251 5.57718 9.12905 5.01383 13.0254L18.5483 13.1239Z" fill="#02ADEF"/>
    <path d="M27.1958 14.9806C27.2521 7.96151 32.5335 2.71477 39.5613 2.75697C43.4062 2.7851 46.5328 4.40273 48.5327 6.90653C48.8144 7.30039 48.8144 7.62392 48.5327 7.91931L46.3497 9.97299C45.9554 10.3528 45.4765 10.2543 45.1948 9.91673C43.8146 8.51009 42.2232 7.58172 39.7726 7.56765C35.3362 7.53952 32.2378 10.6904 32.2096 15.0087C32.1814 19.3412 35.2376 22.6327 39.7585 22.6608C42.1668 22.6749 43.7583 21.7746 45.1244 20.3961C45.4624 20.0586 45.9413 19.9742 46.3215 20.3539L48.4764 22.4358C48.758 22.7312 48.758 23.0687 48.4764 23.4485C46.4342 25.9383 43.2935 27.4996 39.4909 27.4715C32.4068 27.4152 27.1535 22.0419 27.2099 14.9665L27.1958 14.9806Z" fill="#02ADEF"/>
    <path d="M64.4614 15.2479C64.5178 8.22881 69.7992 2.98207 76.827 3.02427C80.6718 3.0524 83.7984 4.67003 85.7983 7.17384C86.08 7.56769 86.08 7.89122 85.7983 8.18661L83.6154 10.2403C83.221 10.6201 82.7422 10.5216 82.4605 10.184C81.0803 8.7774 79.4888 7.84902 77.0382 7.83496C72.6018 7.80682 69.5034 10.9577 69.4752 15.276C69.4471 19.6085 72.5033 22.9 77.0241 22.9281C79.4325 22.9422 81.0239 22.0419 82.3901 20.6634C82.7281 20.3259 83.2069 20.2415 83.5872 20.6213L85.742 22.7031C86.0237 22.9985 86.0237 23.3361 85.742 23.7158C83.6999 26.2056 80.5592 27.7669 76.7566 27.7388C69.6724 27.6825 64.4192 22.3092 64.4755 15.2338L64.4614 15.2479Z" fill="#02ADEF"/>
    <path d="M90.3896 24.1096C90.108 23.772 90.108 23.2938 90.446 22.8155L91.7135 21.0994C92.0515 20.6212 92.4881 20.6775 92.8684 21.015C94.5866 22.5201 96.2626 23.4907 98.4315 23.5048C100.544 23.5189 102.051 22.6608 102.065 20.79C102.065 19.1583 100.981 18.3706 99.0512 17.5407L96.1781 16.3591C93.2064 15.1353 90.953 13.1942 90.9812 9.87452C91.0093 5.64055 94.6429 3.16487 98.8258 3.20707C101.713 3.23521 104.403 4.44491 106.22 6.72366C106.501 7.06125 106.459 7.44104 106.163 7.73643L104.657 9.50879C104.262 9.94485 103.938 9.88858 103.502 9.50879C102.023 8.10216 100.586 7.41291 99.0371 7.41291C97.2062 7.41291 95.9527 8.29909 95.9386 9.88858C95.9386 11.5203 97.178 12.2517 98.9948 12.9832L101.826 14.1647C104.854 15.3885 107.248 17.3859 107.22 20.9869C107.135 25.6007 103.178 27.9779 98.6427 27.9498C94.7979 27.9216 92.0093 26.1211 90.3896 24.1378V24.1096Z" fill="#02ADEF"/>
</svg>
