<svg width="375" height="60" viewBox="0 0 375 60" fill="none" xmlns="http://www.w3.org/2000/svg">
<g clip-path="url(#clip0_3015_463)">
<rect width="375" height="60" fill="#FCFCFC"/>
<path d="M327.982 6.37196C341.102 7.13771 306.543 26.0033 294.769 31.981C272.835 43.1448 278.17 43.0068 286.228 39.0109C289.105 37.5927 297.578 33.4959 305.009 29.932C327.607 19.0864 333.499 15.6166 336.904 11.3534C344.61 1.69071 315.541 -0.231916 292.449 8.37701C261.843 19.8108 221.398 44.5819 213.16 52.8561C209.202 56.8541 210.388 58.7225 222.92 50.6431C267.996 21.4311 306.643 5.1271 327.982 6.37196Z" fill="#00ADEF"/>
<path d="M382.471 -3.99647C379.787 -2.38552 374.365 1.00966 368.472 4.87874C309.711 43.4492 261.374 64.8657 261.223 52.5986C261.129 46.989 275.559 31.6572 286.919 25.1809C290.902 22.8945 287.724 22.2684 284.119 23.9036C276.956 27.1628 262.725 38.0923 258.183 44.5092C252.202 53.0337 255.374 58.6542 266.256 58.8455C278.557 59.0514 315.211 43.9898 338.266 29.1984C344.601 25.1419 376.279 3.26128 384.625 -2.76212C389.043 -5.87315 384.564 -5.22429 382.471 -3.99647Z" fill="#00ADEF"/>
</g>
<defs>
<clipPath id="clip0_3015_463">
<rect width="375" height="60" fill="white"/>
</clipPath>
</defs>
</svg>
