<svg width="20" height="20" viewBox="0 0 20 20" fill="none" xmlns="http://www.w3.org/2000/svg">
<path d="M7.14258 0.5H12.8574C12.9755 0.50015 13.0711 0.595808 13.0713 0.713867V6.92871H19.2861C19.4042 6.92894 19.4998 7.02453 19.5 7.14258V12.8574C19.4998 12.9755 19.4042 13.0711 19.2861 13.0713H13.0713V19.2861C13.0711 19.4042 12.9755 19.4998 12.8574 19.5H7.14258C7.02453 19.4998 6.92894 19.4042 6.92871 19.2861V13.0713H0.713867C0.595808 13.0711 0.50015 12.9755 0.5 12.8574V7.14258C0.500151 7.0245 0.595808 6.92894 0.713867 6.92871H6.92871V0.713867C6.92894 0.595808 7.0245 0.500151 7.14258 0.5Z" stroke="currentColor"/>
</svg>
