<svg width="26" height="26" viewBox="0 0 26 26" fill="none" xmlns="http://www.w3.org/2000/svg">
<path d="M18.8614 12.3613C19.2857 12.0077 19.343 11.3771 18.9895 10.9529C18.6359 10.5286 18.0053 10.4713 17.5811 10.8248L18.8614 12.3613ZM13.2494 15.7363L12.6092 16.5045C12.98 16.8135 13.5187 16.8135 13.8896 16.5045L13.2494 15.7363ZM8.91768 10.8248C8.4934 10.4713 7.86284 10.5286 7.50927 10.9529C7.15571 11.3771 7.21303 12.0077 7.63731 12.3613L8.91768 10.8248ZM17.5811 10.8248L12.6092 14.9681L13.8896 16.5045L18.8614 12.3613L17.5811 10.8248ZM13.8896 14.9681L8.91768 10.8248L7.63731 12.3613L12.6092 16.5045L13.8896 14.9681ZM23.25 13C23.25 18.6609 18.6609 23.25 13 23.25V25.25C19.7655 25.25 25.25 19.7655 25.25 13H23.25ZM13 23.25C7.33908 23.25 2.75 18.6609 2.75 13H0.75C0.75 19.7655 6.23451 25.25 13 25.25V23.25ZM2.75 13C2.75 7.33908 7.33908 2.75 13 2.75V0.75C6.23451 0.75 0.75 6.23451 0.75 13H2.75ZM13 2.75C18.6609 2.75 23.25 7.33908 23.25 13H25.25C25.25 6.23451 19.7655 0.75 13 0.75V2.75Z" fill="currentColor"/>
</svg>
