<svg width="18" height="20" viewBox="0 0 18 20" fill="none" xmlns="http://www.w3.org/2000/svg">
<path d="M2.25 20C1.6155 20 1.08188 19.7863 0.649125 19.3589C0.216375 18.9315 0 18.4044 0 17.7778V14.7H3.375V0H18V17.7778C18 18.4044 17.7836 18.9315 17.3509 19.3589C16.9181 19.7863 16.3845 20 15.75 20H2.25ZM15.75 18.8889C16.0688 18.8889 16.3361 18.7822 16.5521 18.5689C16.7681 18.3556 16.8757 18.0919 16.875 17.7778V1.11111H4.5V14.7H14.625V17.7778C14.625 18.0926 14.733 18.3567 14.949 18.57C15.165 18.7833 15.432 18.8896 15.75 18.8889ZM6.05813 5.98333V4.87222H15.3169V5.98333H6.05813ZM6.05813 9.06V7.94889H15.3169V9.06H6.05813ZM2.25 18.8889H13.5V15.8111H1.125V17.7778C1.125 18.0926 1.233 18.3567 1.449 18.57C1.665 18.7833 1.932 18.8896 2.25 18.8889ZM2.25 18.8889H1.125H13.5H2.25Z" fill="#00ADEF"/>
</svg>
