<svg width="18" height="18" viewBox="0 0 18 18" fill="none" xmlns="http://www.w3.org/2000/svg">
<path d="M2.33311 5.66667H1.49978M16.4998 5.66667H15.6664M8.99978 1.5V3.16667M7.74978 3.16667H10.2498M3.99978 11.5H6.49978M11.4998 11.5H13.9998M11.9248 1.35834H6.07478C3.99978 1.35834 3.54145 2.39167 3.27478 3.65834L2.33311 8.16667H15.6664L14.7248 3.65834C14.4581 2.39167 13.9998 1.35834 11.9248 1.35834ZM17.3248 15.5167C17.4164 16.4917 16.6331 17.3333 15.6331 17.3333H14.0664C13.1664 17.3333 13.0414 16.95 12.8831 16.475L12.7164 15.975C12.4831 15.2917 12.3331 14.8333 11.1331 14.8333H6.86645C5.66645 14.8333 5.49145 15.35 5.28311 15.975L5.11645 16.475C4.95811 16.95 4.83311 17.3333 3.93311 17.3333H2.36645C1.36645 17.3333 0.583114 16.4917 0.67478 15.5167L1.14145 10.4417C1.25811 9.19167 1.49978 8.16667 3.68311 8.16667H14.3164C16.4998 8.16667 16.7414 9.19167 16.8581 10.4417L17.3248 15.5167Z" stroke="currentColor" stroke-linecap="round" stroke-linejoin="round"/>
</svg>
