<svg width="19" height="18" viewBox="0 0 19 18" fill="none" xmlns="http://www.w3.org/2000/svg">
<path d="M14.3415 1.08203L8.10558 6.87267C7.67769 6.76859 7.23086 6.70811 6.76813 6.70811C3.84028 6.70811 1.4668 8.91213 1.4668 11.6309C1.4668 14.3497 3.84028 16.5537 6.76813 16.5537C9.69598 16.5537 12.0695 14.3497 12.0695 11.6309C12.0695 11.0043 11.9384 10.4073 11.709 9.8559L13.5841 8.11463V6.00485L15.8561 6.00485L18.1281 3.89507V1.08203L14.3415 1.08203Z" stroke="#00ADEF" stroke-miterlimit="10" stroke-linecap="round"/>
<path d="M6.74709 13.0572C7.58362 13.0572 8.26176 12.4275 8.26176 11.6507C8.26176 10.8739 7.58362 10.2441 6.74709 10.2441C5.91056 10.2441 5.23242 10.8739 5.23242 11.6507C5.23242 12.4275 5.91056 13.0572 6.74709 13.0572Z" fill="white" stroke="#00ADEF" stroke-miterlimit="10" stroke-linecap="square"/>
</svg>
