<svg width="20" height="21" viewBox="0 0 20 21" fill="none" xmlns="http://www.w3.org/2000/svg">
<path d="M7.1416 0.5H12.8584C13.3544 0.5 13.8562 0.647911 14.2754 0.945312L14.4502 1.08203C14.9067 1.47655 15.2168 2.06407 15.2168 2.73535V5.54883H17.8574C18.7351 5.54898 19.4999 6.27546 19.5 7.23926V18.7646C19.5 19.7285 18.7352 20.4549 17.8574 20.4551H2.14258C1.26483 20.4549 0.5 19.7285 0.5 18.7646V7.23926C0.50011 6.27546 1.26491 5.54898 2.14258 5.54883H4.7832V2.73535C4.7832 2.14787 5.0205 1.62421 5.38574 1.23828L5.5498 1.08203C5.99998 0.693026 6.5746 0.5 7.1416 0.5ZM10 8.56445C9.20808 8.56445 8.60749 9.23136 8.60742 10.002V11.5645H7.14258C6.35079 11.5646 5.75006 12.2315 5.75 13.002C5.75 13.7725 6.35075 14.4393 7.14258 14.4395H8.60742V16.002C8.60742 16.7726 9.20804 17.4395 10 17.4395C10.792 17.4395 11.3926 16.7726 11.3926 16.002V14.4395H12.8574C13.6492 14.4393 14.25 13.7725 14.25 13.002C14.2499 12.2315 13.6492 11.5646 12.8574 11.5645H11.3926V10.002C11.3925 9.23136 10.7919 8.56445 10 8.56445ZM6.6416 3L6.64062 5.04883V5.54883H13.3594V2.5H6.6416V3Z" fill="white" stroke="currentColor"/>
</svg>
