<svg width="22" height="22" viewBox="0 0 22 22" fill="none" xmlns="http://www.w3.org/2000/svg">
<path d="M1.12847 18.5648L0.668062 18.3698H0.668062L1.12847 18.5648ZM20.8715 18.5648L20.4111 18.7598L20.8715 18.5648ZM15.807 5.44444C15.807 7.5435 13.7416 9.38889 11 9.38889V10.3889C14.1204 10.3889 16.807 8.25459 16.807 5.44444H15.807ZM11 1.5C13.7416 1.5 15.807 3.34539 15.807 5.44444H16.807C16.807 2.6343 14.1204 0.5 11 0.5V1.5ZM6.19302 5.44444C6.19302 3.34539 8.25845 1.5 11 1.5V0.5C7.87963 0.5 5.19302 2.6343 5.19302 5.44444H6.19302ZM11 9.38889C8.25845 9.38889 6.19302 7.5435 6.19302 5.44444H5.19302C5.19302 8.25459 7.87963 10.3889 11 10.3889V9.38889ZM1.58888 18.7598C2.12587 17.4919 3.02986 15.9553 4.51543 14.7378C5.99241 13.5274 8.06936 12.6111 11 12.6111V11.6111C7.84076 11.6111 5.53924 12.6058 3.88157 13.9643C2.2325 15.3158 1.24566 17.006 0.668062 18.3698L1.58888 18.7598ZM3.39186 20.5C2.71004 20.5 2.1481 20.2481 1.82235 19.9086C1.50955 19.5826 1.40981 19.1825 1.58888 18.7598L0.668062 18.3698C0.313571 19.2067 0.547493 20.0243 1.10076 20.601C1.64107 21.1641 2.4776 21.5 3.39186 21.5V20.5ZM18.6081 20.5H3.39186V21.5H18.6081V20.5ZM20.4111 18.7598C20.5902 19.1825 20.4905 19.5826 20.1777 19.9086C19.8519 20.2481 19.29 20.5 18.6081 20.5V21.5C19.5224 21.5 20.3589 21.1641 20.8992 20.601C21.4525 20.0243 21.6864 19.2067 21.3319 18.3698L20.4111 18.7598ZM11 12.6111C13.9306 12.6111 16.0076 13.5274 17.4846 14.7378C18.9701 15.9553 19.8741 17.4919 20.4111 18.7598L21.3319 18.3698C20.7543 17.006 19.7675 15.3158 18.1184 13.9643C16.4608 12.6058 14.1592 11.6111 11 11.6111V12.6111Z" fill="currentColor"/>
</svg>
