<svg width="22" height="22" viewBox="0 0 22 22" fill="none" xmlns="http://www.w3.org/2000/svg">
<path d="M13.3497 5.59343C13.1585 5.78777 13.051 6.04934 13.0505 6.322C13.0499 6.59466 13.1563 6.85666 13.3468 7.05176L15.0101 8.7218C15.2044 8.91305 15.466 9.02049 15.7386 9.02104C16.0113 9.02159 16.2733 8.91521 16.4684 8.72475L20.4034 4.80561C20.9248 5.96415 21.0808 7.2541 20.8506 8.50355C20.6203 9.75299 20.0147 10.9026 19.1146 11.7991C18.2144 12.6957 17.0623 13.2966 15.812 13.5218C14.5616 13.747 13.2723 13.5858 12.1159 13.0597L4.90342 20.2431C4.48818 20.6566 3.92566 20.8883 3.33961 20.8871C2.75356 20.8859 2.19198 20.652 1.77842 20.2367C1.36486 19.8215 1.13319 19.259 1.13437 18.6729C1.13556 18.0869 1.3695 17.5253 1.78474 17.1117L8.99719 9.9284C8.47574 8.76985 8.31976 7.4799 8.55002 6.23046C8.78028 4.98101 9.38586 3.83141 10.286 2.93486C11.1862 2.03831 12.3383 1.43739 13.5886 1.21218C14.839 0.986973 16.1283 1.14817 17.2847 1.6743L13.3497 5.59343Z" stroke="currentColor" stroke-linecap="round" stroke-linejoin="round"/>
</svg>
