<svg width="20" height="20" viewBox="0 0 20 20" fill="none" xmlns="http://www.w3.org/2000/svg">
<path d="M5 0.5H8.42871V3.07715C8.42883 3.94492 9.1322 4.64844 10 4.64844C10.8678 4.64844 11.5712 3.94492 11.5713 3.07715V0.5H15C15.0749 0.5 15.1422 0.539007 15.1807 0.599609L15.209 0.666016L19.4941 19.2373C19.5051 19.2847 19.5001 19.3346 19.4795 19.3779L19.4531 19.4189C19.4124 19.47 19.3512 19.4999 19.2861 19.5H11.5713V16.9229C11.5712 16.0551 10.8678 15.3516 10 15.3516C9.13217 15.3516 8.42879 16.0551 8.42871 16.9229V19.5H0.713867C0.665112 19.4999 0.618531 19.4829 0.581055 19.4531L0.546875 19.4189C0.516255 19.3804 0.499879 19.3332 0.5 19.2852L0.505859 19.2373L4.79102 0.666016C4.81346 0.568814 4.90024 0.5 5 0.5ZM10 6.88965C9.13213 6.88965 8.42871 7.59404 8.42871 8.46191V11.5381C8.42871 12.406 9.13213 13.1094 10 13.1094C10.8679 13.1094 11.5713 12.406 11.5713 11.5381V8.46191C11.5713 7.59404 10.8679 6.88965 10 6.88965Z" stroke="currentColor"/>
</svg>
