<svg width="24" height="24" viewBox="0 0 24 24" fill="none" xmlns="http://www.w3.org/2000/svg">
    <path d="M21.98 15.67C22 15.45 22 15.23 22 15V9C22 4 20 2 15 2H9C4 2 2 4 2 9V15C2 20 4 22 9 22H15C15.23 22 15.46 22 15.67 21.98M21.98 15.67C21.94 15.61 21.89 15.55 21.84 15.5C21.83 15.49 21.82 15.47 21.81 15.46C21 14.56 19.81 14 18.5 14C17.24 14 16.09 14.52 15.27 15.36C14.48 16.17 14 17.28 14 18.5C14 19.34 14.24 20.14 14.65 20.82C14.87 21.19 15.15 21.53 15.47 21.81C15.49 21.82 15.5 21.83 15.51 21.84C15.56 21.89 15.61 21.93 15.67 21.98M21.98 15.67C22.62 16.44 23 17.43 23 18.5C23 18.86 22.96 19.21 22.87 19.55C22.76 20 22.58 20.43 22.35 20.82C21.57 22.12 20.14 23 18.5 23C17.42 23 16.44 22.62 15.68 21.98C15.67 21.98 15.67 21.98 15.67 21.98M2.52 7.10999H21.48M8.52 2.10999V6.96997M15.48 2.10999V6.52002M20.18 18.48H16.82M18.5 16.84V20.2" stroke="currentColor" stroke-width="1.5" stroke-miterlimit="10" stroke-linecap="round" stroke-linejoin="round"/>
</svg>
