<svg width="20" height="20" viewBox="0 0 20 20" fill="none" xmlns="http://www.w3.org/2000/svg">
    <path d="M1 17.9999C0.999938 18.5522 1.4476 18.9999 1.99989 19C2.55217 19.0001 2.99994 18.5524 3 18.0001L1 17.9999ZM2.00034 14.9997L3.00034 14.9998L2.00034 14.9997ZM10.5 13C11.0523 13 11.5 12.5523 11.5 12C11.5 11.4477 11.0523 11 10.5 11V13ZM18 14C18.5523 14 19 13.5523 19 13C19 12.4477 18.5523 12 18 12V14ZM13.5 12C12.9477 12 12.5 12.4477 12.5 13C12.5 13.5523 12.9477 14 13.5 14V12ZM14.75 15.2499C14.75 15.8022 15.1977 16.2499 15.75 16.2499C16.3023 16.2499 16.75 15.8022 16.75 15.2499H14.75ZM16.75 10.7499C16.75 10.1976 16.3023 9.74988 15.75 9.74988C15.1977 9.74988 14.75 10.1976 14.75 10.7499H16.75ZM14.989 1.12769C14.5072 0.857649 13.8977 1.02928 13.6277 1.51104C13.3576 1.9928 13.5293 2.60226 14.011 2.87231L14.989 1.12769ZM14.011 7.12769C13.5293 7.39774 13.3576 8.00719 13.6277 8.48896C13.8977 8.97072 14.5072 9.14235 14.989 8.87231L14.011 7.12769ZM11 5C11 6.10457 10.1046 7 9 7V9C11.2091 9 13 7.20914 13 5H11ZM9 7C7.89543 7 7 6.10457 7 5H5C5 7.20914 6.79086 9 9 9V7ZM7 5C7 3.89543 7.89543 3 9 3V1C6.79086 1 5 2.79086 5 5H7ZM9 3C10.1046 3 11 3.89543 11 5H13C13 2.79086 11.2091 1 9 1V3ZM3 18.0001L3.00034 14.9998L1.00034 14.9995L1 17.9999L3 18.0001ZM5.00034 11C2.79137 11 1.00059 12.7906 1.00034 14.9995L3.00034 14.9998C3.00046 13.8953 3.89586 13 5.00034 13V11ZM5.00034 13H10.5V11H5.00034V13ZM18 12H15.75V14H18V12ZM15.75 12H13.5V14H15.75V12ZM16.75 15.2499V13H14.75V15.2499H16.75ZM16.75 13V10.7499H14.75V13H16.75ZM14.011 2.87231C15.006 3.42999 15.5 4.23151 15.5 5H17.5C17.5 3.30995 16.4211 1.93047 14.989 1.12769L14.011 2.87231ZM15.5 5C15.5 5.76849 15.006 6.57001 14.011 7.12769L14.989 8.87231C16.4211 8.06953 17.5 6.69004 17.5 5H15.5Z" fill="currentColor"/>
</svg>
