<svg width="22" height="22" viewBox="0 0 22 22" fill="none" xmlns="http://www.w3.org/2000/svg">
    <path d="M17.381 18.7347V18.0574C17.381 17.0783 16.8564 16.1747 16.0064 15.6893L13.0801 14.0147" stroke="currentColor" stroke-width="1.5" stroke-miterlimit="10" stroke-linecap="round"/>
    <path d="M8.92423 14.0137L6.0015 15.69C5.1515 16.1755 4.62695 17.0791 4.62695 18.0582V18.7355" stroke="currentColor" stroke-width="1.5" stroke-miterlimit="10" stroke-linecap="round"/>
    <path d="M11.0006 14.6348C8.99244 14.6348 7.36426 13.0066 7.36426 10.9984L7.36426 9.18025C7.36426 7.17207 8.99244 5.54388 11.0006 5.54388C13.0088 5.54388 14.637 7.17207 14.637 9.18025L14.637 10.9984C14.637 13.0066 13.0088 14.6348 11.0006 14.6348Z" stroke="currentColor" stroke-width="1.5" stroke-miterlimit="10" stroke-linecap="round"/>
    <path d="M11 21C16.5228 21 21 16.5228 21 11C21 5.47715 16.5228 1 11 1C5.47715 1 1 5.47715 1 11C1 16.5228 5.47715 21 11 21Z" stroke="currentColor" stroke-width="1.5" stroke-miterlimit="10" stroke-linecap="square"/>
</svg>
