<svg width="27" height="22" viewBox="0 0 27 22" fill="none" xmlns="http://www.w3.org/2000/svg">
    <path d="M1 5.28571L11.9583 12.8C12.4148 13.1133 12.9513 13.2804 13.5 13.2804C14.0487 13.2804 14.5852 13.1133 15.0417 12.8L26 5.28571M3.77778 21H23.2222C23.9589 21 24.6655 20.699 25.1864 20.1632C25.7073 19.6273 26 18.9006 26 18.1429V3.85714C26 3.09938 25.7073 2.37266 25.1864 1.83684C24.6655 1.30102 23.9589 1 23.2222 1H3.77778C3.04107 1 2.33453 1.30102 1.81359 1.83684C1.29266 2.37266 1 3.09938 1 3.85714V18.1429C1 18.9006 1.29266 19.6273 1.81359 20.1632C2.33453 20.699 3.04107 21 3.77778 21Z" stroke="currentColor" stroke-width="2" stroke-linecap="round" stroke-linejoin="round"/>
</svg>
