<svg width="24" height="22" viewBox="0 0 24 22" fill="none" xmlns="http://www.w3.org/2000/svg">
    <path d="M1.71596 1.65087C1.25754 2.06762 1 2.63285 1 3.22222V4.33333C1 13.5378 9.20844 21 19.3333 21H20.5556C21.2039 21 21.8256 20.7659 22.284 20.3491C22.7425 19.9324 23 19.3671 23 18.7778V15.1344C23.0001 14.9012 22.9193 14.6738 22.7693 14.4845C22.6192 14.2952 22.4075 14.1537 22.164 14.08L16.6726 12.4156C16.3935 12.3312 16.0903 12.3412 15.8187 12.4436C15.547 12.5461 15.3251 12.7342 15.1937 12.9733L13.8126 15.4811C10.8199 14.2519 8.42295 12.0728 7.07078 9.35222L9.82933 8.09667C10.0924 7.97717 10.2993 7.77544 10.412 7.52849C10.5247 7.28154 10.5357 7.00593 10.4429 6.75222L8.612 1.76C8.53097 1.53884 8.37549 1.34645 8.16755 1.21006C7.95961 1.07366 7.70975 1.00018 7.45333 1H3.44444C2.79614 1 2.17438 1.23413 1.71596 1.65087Z" stroke="currentColor" stroke-width="2" stroke-linecap="round" stroke-linejoin="round"/>
</svg>
